<svg xmlns="http://www.w3.org/2000/svg" viewBox="0 0 320.9 264.6"><style>.st0{display:none}.st1{display:inline}.st2{fill:none;stroke:#f9f1da;stroke-miterlimit:1}.st3{stroke-width:6}.st3,.st4{fill:none;stroke:#f9f1da;stroke-miterlimit:1}.st4{stroke-width:2}.st5{display:none;fill:#d1d3d4}.st6{fill:#f9f1da}.st7{fill:#FFF}.st8{fill:#ea5385}.st8,.st9{fill-rule:evenodd;clip-rule:evenodd}.st9{display:none;fill:#6ec06c}</style><g class="st0 st1" id="Layer_3"><path class="st2" d="M80.6 214.4c.3-1 .8-1.8 1.4-2.6M77.4 211.2c3.9-.7 8.2.9 10.6 4.1"/><path class="st3" d="M85.4 218.2v-2.7c0-2-2.4-3.3-4.3-2.6M79.8 210.5c2.2-.1 4.3-1.2 5.7-2.8"/><path class="st3" d="M85.4 204.6c-.6 2.2-.2 4.7 1.1 6.6.6.9 1.4 1.7 1.8 2.7.7 1.8.1 3.8-1 5.4-1.1 1.6-2.6 2.7-4.1 4-.8.7-1.7 1.5-2.6 2.1-2 1.2-4.5 1.2-6.8.7s-4.4-1.7-6.4-2.8"/><path class="st4" d="M75.7 211.8c2.1 1.9 4.3 3.9 6.4 5.8.2.2.5.3.6.1"/><path class="st4" d="M74.2 211.8c.7.9 2 1.1 3.1 1.2 1.4.1 2.7.2 4.1.4.4 0 .8.1 1 .3.2.2.3.4.4.6.6 1.3.7 2.7.5 4.1 0 .3-.1.6-.2 1-.1.2-.1.5-.2.7-.2.7-.3 1.4-.7 2-.4.6-1 1.1-1.7 1.1-.5 0-1-.2-1.5-.4-2.4-.9-5-.9-7.6-1.3-.2 0-.5-.1-.6-.3-.1-.3.4-.5.8-.6"/><path class="st4" d="M81.6 220c-1.4-.3-2.9 0-4.2.7-1.6.9-2.9 2.5-4.7 2.6"/><path class="st4" d="M75.6 223.4c.8-.1 1.6-.6 2.3-1 1.7-1.1 3.3-2.1 5-3.2M77.6 212.5c1.3-1.1 2.8-3.1 4.2-4.1-1.6 1.3-6.6 4.6-8.5 2.8 1.8 1.6 3.6 3.1 5.8 4.2M81.1 214.2v.3M85.4 204.2c1.2-.2 2.4.7 3.2 1.6 1.5 1.8 2.4 4.2 2.5 6.5M85.4 205.4c.1.5.3.9.5 1.4 1 1.9 3.4 2.9 4.1 4.9M84.7 219c-1.7-2.3-3.4-4.6-5.2-6.9M76.4 221.7c-2.7.2-5.5-.2-8.2-.5-.8-.1-1.5-.2-2.2-.5-1.1-.5-2-1.6-3.3-1.8-1.1 2.5 7 3.4 8.6 3.8"/><path class="st4" d="M70.3 219.1c2.8-.5 5.4 1.1 8.1 2.1 2.1.8 4.3 1.2 6.6 1.2M67.5 224.9c-.5-1.4-2.7-1.6-3-3M71.7 219.9c.2 1.1.8 2 1.4 2.9 1.5 2 3.4 3.6 5.6 4.8M72.5 220.1c1 0 2.1.5 2.8 1.2"/><path class="st2" d="M79.5 219.8c0-.1.1-.2.2-.3.3-.2.5-.4.8-.7.2-.1.3-.3.5-.4.2-.1.3-.2.5-.2.5-.2 1-.4 1.4-.6M70.1 219.5c.5.4 1 .9 1.4 1.3M69.7 219c2.4 1.5 4.7 3.2 6.9 5M61.6 217.9c1.8 2.4 3.8 4.7 5.9 6.8 1.5 1.5 3.2 2.9 5.2 3.5M89.6 209.7c-.3-.8-.7-1.6-1.3-2.2-.1-.6-.2-1.3-.5-1.9M85.1 203.7c-.1.8.1 1.5.3 2.3.2.8.4 1.5.6 2.3M85 203.3c-.2.8-.5 1.5-.7 2.3M73.1 211.6c1.2 0 2.5-.1 3.7.1 1 .1 2.1.4 3.1.7 2.2.6 4.3 1.5 6.5 1.9M82 218v-2.1"/><path class="st2" d="M80.8 220c-.2-1 .3-2 .7-3 .4-1 .7-2.1.9-3.1"/></g><g id="_x30_1_x5F_T31148_xA0_Image_1_"><path class="st5" d="M-19.4-20.1h359v302h-359z"/><path class="st6" d="M318.3 104.8c-.5-1.6-.6-2.6-1.3-3.8-.6-1-1.2-2-1.8-2.9-.3-.6-.5-1.2-.8-1.6-.6-.8-2.1-1.8-3.4-2.7-1.3-.8-3-1.5-4.2-1.9-.5-.2-1.3-.3-1.8-.3-4-.4-8.3.1-12.1 1.2-.7-.6-.4-1.6-.7-2.3-.1-.4-.6-1.1-.9-1.7-.8-1.6-1.3-2.7-2.9-3.3-1.4-.6-4.9-1.4-6.9-1.1-2.2.3-3.4 3.4-1.9 5 .6.7 2.5.8 2.9 1.9.7 1.9-.7 2.8-1.4 3.7-1.1 1.4-2.3 2.6-3.8 3.5-.5.3-1.4.5-1.7.9-.4.5-.8 1.8-.7 2.6.1.6.6 1.4 1 2 .4.7.8 1.4 1.1 2 .8 1.4 1.7 2.5 2.2 3.9.5.1.8.6 1.2.8 1.1.2 2.4-.2 3-.3 1.1-.3 1.9-.6 3.1-1 .8-.3 1.6-.4 2.3-.7.2-.1.5-.4.8-.4 1-.3 2.2-.5 3.2-.6 2.9-.3 6.3-.5 8.8.1 1.6.4 3.1 1.1 4.5 1.7 1.6.6 3.2 1 4.8 1.6 1.4-.4 3 .8 4.8.4 1.3-.2 3.1-2.7 3-4.5.2-.6-.2-1.5-.4-2.2z"/><path class="st7" d="M270.3 102.4c-1 .2-1.7 1-2.7 1.7-2.7 1.8-6.3 2.8-9.4 3.9-2.1.7-4.3 1.4-6.5 2.2-2.2.8-4.9 1.3-7.2 1.7-6.5.9-15.7.7-22.6.1-1.1-.1-2.3 0-3.3-.1-.8-.1-1.8-.7-2.7-1-1-.4-2-.7-2.7-1.1-1.4-.8-1.9-1.6-2.8-2.9-.7-1-1.2-1.9-1.7-3-.3-.6-.3-1.2-.6-1.8-.5-1.1-1.4-1.9-1.8-3.1-.5-1.5-.7-2.9-1.3-4.3-.6-1.3-1.4-2.5-1.9-3.9 1.3-1.3 2.6-1.3 3.9-2.2 1.5-1 2.2-2.8 3.1-4.7 1-2 1.8-3.7 1.9-6 .2-4.8-1.2-10.5-3.4-13.3-1.4-1.7-3.3-3.3-5-4.5-1.9-1.3-3.8-2.2-6.1-3.3-1.6-.7-3.6-1.6-4.8-1.8-2.1-.3-5.1.8-6.9 0-.6-.2-1.3-1.6-1.8-2.7-1.5-3.2-3.2-6-4.7-8.8-2.2-4.1-4.1-8.1-6.1-11.9-4.2.2-8 1.6-12 2.3-4 .8-7.9 2.1-12.2 2.2-1.4-2.2-.2-3.9.8-6.2 3.4-7.7 6.9-15 10.5-22.1.7-1.3 1.6-2.4 1.7-3.9-2.4.2-4.7 1.1-7 1.8-21.1 5.9-42.1 12-63.2 17.6-11.8 3.2-23.3 6.6-35.1 9.9-2.1.6-5.2 1.1-6.9 2.1-1.1.7-2.1 2.4-3.3 3.9-3.4 4-6.8 8-9.9 11.9C28 62.3 20.2 72.3 11.1 83.3c-3.3 4-6.2 8-9.8 12-.8.8-3.5 3-3.3 4 .1.6 1.3 1 2.2 1.6.9.6 1.7 1.2 2.2 1.6 1.4.9 3.8 1.9 4.2 3.3.5 1.8-.2 4.7-.4 6.9-.5 4.8-1.2 8.8-1.2 14 0 4.3-.2 8 .8 10.8.3.8.5 1.9 1.3 2.6.8-1 1.2-2.2 1.8-3.3.6-1.2 1.1-2.3 1.8-3.4 1.3-2.2 2.2-4.6 4.1-6.3.5-.5 1.7-1.4 2.4-1.3.7.1 1.5 1.4 1.9 2.1.4.7.5 1.6.8 2.4.6 1.5 1.3 3.1 1.8 4.7.3.9.3 1.8.6 2.7.3.9 1.5 3.7 3 3.2.7-.2.7-1.4.7-2.4 0-2 .2-4.3 0-6-.1-1.1-.4-1.9-.6-2.7-1.9-8.5-2.1-19.7-1.6-29.8.2-3 .2-6.5 1.6-8 .8-.9 1.8-.6 3.3-.9.6-.1 1.5-.5 2.6-.7 2.1-.4 6.9-1.4 8.5-.7.6.3 1.4 1 1.3 2.2-.1 1.7-3 1.9-3.1 3.7-.1.8.9 2.6 1.4 3.7.6 1.3 1.1 2.7 1.6 3.7 5.5 12.6 10.2 23.9 15.9 36.2 1.5 3.1 3.3 7.2 4.7 11 .5 1.2 1.4 3 1.3 3.9-.1 1-1.9 2.1-2.9 2.9-4.4 3.5-8 8.1-9.7 13.8-.4 1.4-1.1 3-1.3 4.5-.5 3.3-.9 6.9-.7 10.6.2 4 2 6.6 3.8 9 .7 1 1.4 2.2 2.1 2.9 2.6 2.7 6.7 4.2 10.9 5.5 4.3 1.3 9.1 1.5 13.4 3-.2 1.3-.8 2.2-1.2 3.2-1.3.7-2.1 1.5-3.9 2-1.6.5-3.3-.2-4.9.3-4.5 1.5.9 8 2.3 9.3-3.4-.7-6.1-1.4-8.6-2.8s-4.1-3.5-6.9-4.4c-1.7 2-1 4.7-.4 6.5.2.7.4 1.4.6 2 1.5 4.6 4.3 8.3 7.5 10.6 2.3 1.7 5.2 2.7 8.7 3.2 2.4.4 3.8.2 6.2-.1 1.1-.2 2.4-.2 3.3-.6.6-.2 1-.7 1.6-1 .6-.3 1.3-.5 1.8-.8 1.1-.7 2.3-2 3.1-3 1.1-1.3 2.2-3 3-4.7.9-1.7 1.1-3.8 2.6-5.2.8 1.6 1.7 2.9 2.7 4.7.7 1.3 1.4 4.2 2.7 4.8.9.4 2.4.2 3.7.1 4.6-.4 8.4-.5 13.1-.9 3.3-.3 6.6-.7 9.5-.2-.7 2.5-1.3 5-1.9 7.5-.4 1.6-.4 3.2-.6 5.1-.1.9-.4 1.8-.4 2.9-.2 3.4-.1 7.2 0 10.6.1 3.3.7 6.6 2.1 8.7 4.2.3 9.1 1 13.3.7 2.2-.2 4.5-.2 6.8-.3 2.2-.2 4.5 0 6.2-1 1-8.5-8.8-7.2-14.5-9.3-1.4-4.1-1.4-11-1-16.5.2-2.3.6-5.1 1.4-7.2.7-1.6 2.6-4.1 3.9-4.7.9-.3 2-.2 3.2-.3.7-.1 1.6-.4 2.4-.4 1-.1 2.1.1 3.1 0 .9-.1 1.8-.4 2.8-.4 2-.2 4.2-.5 5.7.2 0 1.4-.8 2.6-1.2 3.9-.5 1.3-.9 2.8-1.1 4.3-.5 3-1.1 6-1.2 9.5-.1 3.1-.1 7-.1 10.4 0 2.4-.6 8.8.4 10.3.7 1 3.8.7 6 .8 2.2.1 4.5 0 6.4-.1 6.2-.5 11.4 1.4 16.1-.4.1-1.4.6-2.7.3-4-.2-1.1-1.7-2.3-2.8-2.9-1.5-.8-3.3-.4-5.1-.7-.7-.1-1.3-.7-1.9-.8-2.2-.4-4.2.2-5.5-.7-2.5-1.6-2-7.4-2-11.4 0-2.1 0-4.2.2-6.1.1-1.1.5-2.3.8-3.4.8-3.7 1.7-7 2.8-10.1.5-.5 1.1-1.3 1.9-1.6 1.5-.5 4.7-.2 6.9-.6 3.9-.6 6-2.8 8.3-5 3.3-3.1 7.1-6.5 9.9-9.6.5-.6 1-1.2 1.6-1.7 1.8-1.5 3.3-3.3 4.9-4.9 2.2-2.2 4.4-4.3 6.5-6.4 4.4-4.4 8.4-8.8 12.6-13.3 3-3.2 6.5-6.5 9.8-9.8 1.2-1.2 2.7-2.2 3.2-3.3.9-1.7.3-2.5-.6-4.4-5.9-13.5-11.6-27.1-17.3-40.4-.4-1-.9-2-1-3 2.8.8 5.6 1.2 8.7 1.9 3.1.7 6.5.4 9.9.8 3.3.3 6.5.1 10-.2 3.4-.3 6.8-.3 10-.7 3-.3 6-1.7 8.8-2.7 2.9-1.1 5.4-2.6 7.9-3.7 1.7-.7 3.8-1.3 4.9-2.1.5-.4 1.1-1.3 1.2-1.8.3-1.6-1.3-3.4-1.8-4.8-1.2-2.2-2.5-4.5-5.6-3.8zM72.1 188.7c-5.7-.7-11.4-2.8-13.9-8.5-2.4-5.3-.9-11 1.7-16 1-1.8 2.6-2.4 4.1-2.1 2.2-1.1 5.2-.5 5.7 2.6 1.2 6.5 4.3 12.3 6.5 18.5.9 2.5-1.4 5.8-4.1 5.5z"/><path class="st8" d="M80.4 201.9c-4.3-1.5-9.1-1.7-13.4-3-4.2-1.3-8.2-2.8-10.9-5.5-.7-.7-1.4-1.9-2.1-2.9-1.8-2.4-3.5-5-3.8-9-.2-3.8.1-7.3.7-10.6.2-1.6.9-3.1 1.3-4.5 1.6-5.7 5.3-10.2 9.7-13.8 1-.8 2.8-1.9 2.9-2.9.1-.9-.9-2.7-1.3-3.9-1.4-3.7-3.2-7.8-4.7-11-5.7-12.3-10.4-23.5-15.9-36.2-.4-1-.9-2.3-1.6-3.7-.5-1.1-1.5-2.9-1.4-3.7.1-1.7 3-2 3.1-3.7.1-1.2-.7-1.9-1.3-2.2-1.7-.7-6.4.3-8.5.7-1.1.2-1.9.6-2.6.7-1.5.2-2.5 0-3.3.9-1.3 1.5-1.4 5-1.6 8-.5 10.2-.3 21.3 1.6 29.8.2.8.4 1.6.6 2.7.2 1.7 0 3.9 0 6 0 1.1 0 2.2-.7 2.4-1.5.5-2.7-2.4-3-3.2-.3-.9-.3-1.8-.6-2.7-.5-1.6-1.2-3.1-1.8-4.7-.3-.9-.4-1.7-.8-2.4-.3-.7-1.2-2-1.9-2.1-.8-.1-1.9.9-2.4 1.3-1.9 1.7-2.8 4.2-4.1 6.3-.7 1.2-1.2 2.3-1.8 3.4-.6 1.1-1 2.3-1.8 3.3-.8-.6-1-1.7-1.3-2.6-1-2.7-.8-6.5-.8-10.8 0-5.2.7-9.2 1.2-14 .2-2.2 1-5 .4-6.9-.4-1.4-2.8-2.4-4.2-3.3-.6-.4-1.3-1-2.2-1.6-.9-.6-2.1-1-2.2-1.6-.2-1 2.6-3.1 3.3-4 3.6-4 6.5-8 9.8-12 9.1-11 16.9-21.1 25.7-32.2 3-3.8 6.5-7.8 9.9-11.9 1.3-1.5 2.2-3.2 3.3-3.9 1.7-1 4.7-1.5 6.9-2.1C70.7 26 82.1 22.6 94 19.4c21.1-5.7 42.2-11.8 63.2-17.6 2.3-.6 4.6-1.6 7-1.8-.1 1.4-1 2.6-1.7 3.9-3.7 7-7.1 14.4-10.5 22.1-1 2.3-2.1 4-.8 6.2 4.3-.2 8.2-1.5 12.2-2.2 4-.8 7.8-2.2 12-2.3 2 3.8 3.9 7.7 6.1 11.9 1.5 2.8 3.1 5.6 4.7 8.8.5 1 1.2 2.4 1.8 2.7 1.8.8 4.7-.3 6.9 0 1.2.2 3.2 1 4.8 1.8 2.3 1.1 4.2 2 6.1 3.3 1.7 1.2 3.6 2.9 5 4.5 2.3 2.8 3.6 8.5 3.4 13.3-.1 2.3-.9 3.9-1.9 6-.9 1.8-1.6 3.6-3.1 4.7-1.2.9-2.6.9-3.9 2.2.5 1.4 1.3 2.5 1.9 3.9.6 1.4.8 2.9 1.3 4.3.4 1.2 1.3 2 1.8 3.1.3.6.3 1.2.6 1.8.5 1.1 1 2 1.7 3 .8 1.3 1.4 2.1 2.8 2.9.7.4 1.6.7 2.7 1.1.9.3 1.8.9 2.7 1 1 .2 2.2 0 3.3.1 6.9.6 16.1.8 22.6-.1 2.3-.3 5-.9 7.2-1.7 2.2-.8 4.4-1.5 6.5-2.2 3.2-1.1 6.7-2 9.4-3.9 1-.7 1.7-1.5 2.7-1.7 3-.6 4.4 1.6 5.1 3.7.5 1.4 2.1 3.1 1.8 4.8-.1.5-.8 1.4-1.2 1.8-1 .8-3.2 1.4-4.9 2.1-2.5 1-5 2.6-7.9 3.7-2.7 1-5.7 2.3-8.8 2.7-3.2.3-6.6.4-10 .7-3.5.3-6.7.6-10 .2-3.4-.4-6.7-.1-9.9-.8-3-.6-5.9-1.1-8.7-1.9.1 1 .6 2 1 3 5.7 13.2 11.4 26.9 17.3 40.4.8 1.9 1.5 2.7.6 4.4-.6 1.1-2 2.2-3.2 3.3-3.2 3.2-6.7 6.6-9.8 9.8-4.2 4.5-8.2 8.9-12.6 13.3-2.1 2.1-4.3 4.2-6.5 6.4-1.6 1.6-3.1 3.3-4.9 4.9-.6.5-1 1.1-1.6 1.7-2.8 3.1-6.6 6.6-9.9 9.6-2.3 2.2-4.5 4.4-8.3 5-2.2.3-5.4 0-6.9.6-.8.3-1.4 1.1-1.9 1.6-1 3.1-2 6.4-2.8 10.1-.2 1.1-.7 2.3-.8 3.4-.2 1.9-.2 4-.2 6.1 0 4-.5 9.8 2 11.4 1.4.9 3.3.2 5.5.7.6.1 1.2.7 1.9.8 1.8.3 3.6-.1 5.1.7 1.1.5 2.5 1.7 2.8 2.9.3 1.3-.2 2.5-.3 4-4.7 1.8-9.9 0-16.1.4-1.9.1-4.3.2-6.4.1-2.2-.1-5.3.2-6-.8-1.1-1.5-.4-7.9-.4-10.3 0-3.4 0-7.4.1-10.4.2-3.5.7-6.6 1.2-9.5.2-1.5.7-3 1.1-4.3.4-1.3 1.2-2.5 1.2-3.9-1.5-.7-3.7-.4-5.7-.2-.9.1-1.8.4-2.8.4-1 .1-2.1-.1-3.1 0-.9.1-1.7.4-2.4.4-1.2.1-2.3 0-3.2.3-1.3.5-3.2 3-3.9 4.7-.9 2.1-1.3 4.9-1.4 7.2-.4 5.5-.4 12.4 1 16.5 5.7 2.2 15.5.8 14.5 9.3-1.7 1-4 .8-6.2 1-2.2.2-4.6.2-6.8.3-4.3.3-9.1-.4-13.3-.7-1.4-2.1-2-5.4-2.1-8.7-.1-3.5-.2-7.3 0-10.6.1-1 .4-1.9.4-2.9.1-1.9.2-3.5.6-5.1.6-2.6 1.2-5 1.9-7.5-2.9-.4-6.2-.1-9.5.2-4.7.4-8.5.5-13.1.9-1.3.1-2.7.3-3.7-.1-1.3-.6-1.9-3.4-2.7-4.8-.9-1.7-1.9-3.1-2.7-4.7-1.5 1.4-1.7 3.5-2.6 5.2-.8 1.6-1.9 3.3-3 4.7-.8 1-2 2.3-3.1 3-.5.3-1.2.4-1.8.8-.6.3-1 .8-1.6 1-.9.3-2.2.4-3.3.6-2.4.4-3.8.5-6.2.1-3.4-.5-6.3-1.5-8.7-3.2-3.2-2.4-6.1-6-7.5-10.6-.2-.6-.3-1.3-.6-2-.6-1.8-1.3-4.6.4-6.5 2.8 1 4.3 3.1 6.9 4.4 2.6 1.4 5.2 2.1 8.7 2.8.1 0 .1 0 .1.1-1.2-1-7.1-7.9-2.4-9.4 1.5-.5 3.3.1 4.9-.3 1.8-.5 2.5-1.3 3.9-2 .6-1.4 1.2-2.3 1.3-3.6zm27.1-171c-1.5.3-2.8.9-4.2 1.1-1.9.3-3.2.5-4.8.9-1 .3-2.1.5-3.1.7-5.2 1.1-8.9 4-13.8 5.1-1 .2-2.2.2-3.2.6-2.1.7-4.9 3-4.5 5.8.4 2.7 3.6 3.1 6.7 2.4 1.4-.3 2.8-1.2 4.2-1.9 6.8-3.4 15.9-4.9 23.8-7.1 2.2-.6 4.3-1.5 6.3-2 1.4-.3 3.2-.6 4.9-.9 1.2-.2 3.4-.8 3.4-2.3 0-1-1.7-2.5-3-2.9-1.8-.6-6.6-.5-8.2-.3-1.6.2-3 .6-4.5.8zm-9.9 42.3c.9-1.3 1.9-2.5 3.1-3.4 2.1-1.7 4.8-3.1 7.5-4.5 2-1 4.5-1.5 6.9-2.1.8-.2 1.6-.7 2.3-.8.9-.1 1.9.1 2.9 0 1.7-.1 3.7-.6 5.5-.6 1.2 0 2.7.5 3.7.3.7-.1 1.2-1.1 2-1.8 2.3-2.1 5.4-4 8.5-5 3.6-1.1 7.8-1.1 12.1-.8 3.4.2 6.2.7 8.8 1.6 1 .3 1.7.8 2.6.8 1.5-.1 2.6-1.8 4-2.4 2.2-1.1 4.6-1.2 6.1-2.3.5-.4 1.3-1.3 1.3-1.8.1-1.1-1.2-2.9-1.8-4.1-1.3-2.9-2.3-5.3-3.7-8.1-.6-1.4-1.2-3.1-2.3-3.7-1.8-.8-4 0-5.8.3-5.9 1.2-11.7 2.3-17.4 3.4-2.4.5-4.9.6-7.1 1.2-1.3.4-2.4 1-3.9 1.3-3.6.8-7.2 1.6-10.9 2.3-3.7.7-7.4 1.1-11 2.2-5.1 1.6-10.9 2.3-16 3.8-1.7.5-3.1 1.4-4.8 1.9-1.1.3-2.9.4-4 1.2-2.8 2.1-.2 4.5 1.1 6.5.5.7.9 1.5 1.3 2.1.5.7 1.2 1.3 1.6 1.9 1.1 1.8 1.9 4 2.9 5.9 1 2 1.9 3.9 3.3 5.4.8.2 1-.4 1.2-.7zm-43.7-16c-2.4 1.4-3.2 2.7-5.1 4.5-2.2 2.1-3.2 3.6-4.7 6.4-.6 1.3-1.7 3-1.3 4.4.4 1.8 3.3 2.1 5.1 1.3 1.6-.7 2.6-2.8 4-4.2.6-.6 1.5-1.1 2.3-1.8.7-.6 1.5-1.2 2.3-1.8 1.7-1.1 3.4-2.5 4.9-3.3 1.6-.8 4-1.7 4.2-3.7.3-3.1-3.6-4.3-6-4-2.1.5-4.1 1.3-5.7 2.2zm136.4.4c-.1 1.3 1 1.7 1.7 2.9.4.7.8 1.7 1.2 2.6.4.9 1.2 1.6 1.4 2.3.2.4.3 1.2.4 1.7.4 1 1.2 2.3 1.8 3.5 1.3 2.6 2.4 4.3 3.5 7.1.4 1 1.5 3.2 2 3.4 2.3.9 4.8-1.8 5.4-3 1.3-2.4.8-5.9.1-8.4-.3-1.1-.6-2.2-1-3.2-1.7-4.1-4.7-8.3-8.7-9.8-1.6-.6-4-1.1-6-.8-.7.2-1.7.5-1.8 1.7zm-21.1 1.3c-2 1.3-4.1 3.2-4.9 5.2-.3.8-.5 2.1-.6 3.4-.1 1.3-.3 2.7-.2 3.9.2 4.2 2.6 5.1 5.4 6.9 1.8 1.1 3.6 2.2 5.5 2.8 2.1.6 4.8.8 8.1 1.3 2.2.3 7.2 1.3 7.9-.3.4-1-.5-2.2-.9-3.3-.6-1.5-1-3.3-1.7-4.8-.5-1-1.3-2-1.7-2.8-1-2.2-1.7-4.6-2.6-6.4-.5-1-1-2.1-1.4-3.1-.5-1.1-.8-2.3-1.3-3.2-.8-1.3-2.7-2.3-4.4-2.1-2.9.2-5.3 1.2-7.2 2.5zm28 18.9c-.6-1.3-1.6-2.5-2.1-3.7-.5-1-.6-2-1-3-.7-1.6-1.6-3.3-2.4-4.9-1.2-2.3-2.4-4.4-3.4-6.3-.6-1-1-2.9-2-2.8-1.8.2-.3 2.9.2 4 3.1 6.8 6.1 13.8 9 20.1.8.4 2.5 1.9 3.3.6-.1-1.4-.9-2.7-1.6-4zm-18.5 11.5c.8.6 1.8 1.1 2.8 1.8 1.5 1 6.7 4.2 3.4 6.1-.4.3-1.1.2-1.8.4-.5.2-.8.6-1.1.7-.5.2-1.2.2-1.9.3-.5.1-1.1.5-1.7.7-1.9.4-3.9.8-5.7 1.3-1.2.3-2.2.6-3.4.9-.5.1-1.1.3-1.6.4-1.3.3-2.4.9-3.1 1-1.5.2-3.9-.3-5.1-.7-2.2-.7-4-3.7-4.3-6.1-.3-2.1.1-5.6 1.8-5.4 1.2.1 1 1.1 1.3 2.2.3.9.7 1.9 1.6 2.1.6.2 1.2-.1 2-.2 1.7-.2 3.4.2 5.2.3 1.8.1 4.1-.1 5.9-.2 2.3-.1 4.4-.1 4.4-1.8s-2.7-3.2-3.9-4c-.7-.5-1.7-.9-2.6-1.3-.9-.5-1.7-1.2-2.4-1.6-2.2-1.1-4.7-1.5-6.7-2.1-.9-.3-1.9-.9-2.9-1.4-1.8-1-5.2-1.9-5-4.4.1-1.7 2.5-2.4 3.3-3.7.2-.4.6-1.3.7-2 0-.5-.3-1.2-.3-1.9 0-1.1.1-2.5.2-3.5.1-.9.7-1.6.6-2.4-.4-2.9-4.7-3.1-8.1-3-1 0-2.6.5-3.8.7-1.1.1-1.8-.1-2.6.1-1.4.4-2.8 1.6-2.9 2.7-.1 1.3 1.4 2.8 2.2 3.8.9 1 2.1 2 2.8 3.2 1.1 1.9 1.5 4.8 1.2 7.8-.3 4-1.5 6.3-2.8 9.1-.6 1.4-1.1 3-1.8 4.1-1.1 1.8-2.5 3.1-3.9 4.7-.9 1-1.9 1.9-2.9 2.8-3.5 2.8-7.2 5-12 6.5-1.8.6-3.8 1.3-5.5 1.7-2.4.4-4.4.5-6.3 1.2.2 1.4.8 2.6 1.4 3.9.6 1.2 1.1 2.6 1.8 3.8.4.8 1.3 1.6 1.6 2.3 1.7 5 4.3 9.9 6.4 14.5.3.8.8 1.5 1.1 2.3.3.9.4 1.9.8 2.8.3.7.8 1.4 1.1 2.1.4.8.4 1.7.8 2.6.2.5.7 1.1 1 1.7l.9 1.8c3.3 7.4 6.4 15.2 9.9 22.4.6 1.3.9 2.7 1.4 4 .4 1 1.1 2.3 1.8 3.5.6 1.1 1.6 2.7 1.3 4.1-.1.7-1.7 1.8-2.4 2.7-2.5 2.7-5.6 5-8.1 7.3-10 9.1-19.5 18.1-29.4 27.1-.9.8-2.2 1.8-1.6 3.2 1.1.5 2.4.3 3.5.2 3.8-.2 7.9-.4 11.5-.6 3.9-.2 6.7-1.2 9.2-2.8.9-.6 1.9-.9 2.7-1.4 1.8-1.2 3.1-3.1 4.8-4.4 1.7-1.4 3.1-3.1 4.7-4.5 1.1-.5 1.9-3 3.4-2.8.4.1.8.4.9.9.2.9-.6 1.4-1 1.8-.5.5-.9 1.1-1.2 1.6-.7.9-2.1 2.4-2 3.5 0 .8 1 1.6 1.7 2.1.5.3 1.8 1.3 2.9 1 .2-.1.6-.7 1-1.3 1-1.5 2.4-2.8 3.4-3.8 3.3-3.2 6.3-6.5 9.5-9.8 1.6-1.6 3.4-3.3 4.8-4.9.7-.9 1.3-1.8 2.1-2.7.7-.8 1.4-1.7 2.2-2.6 1.5-1.6 5-5.7 7.3-3.2.4 3.1-1.1 3.6-2.7 5.1-2.2 2.2-4.2 4-6 6.2-.4.5-.6 1.1-1 1.4-1.1 1.1-2.7 1.9-3.7 3-.5.6-.8 1.4-1.3 2-.6.7-1.5 1.4-2.2 2.1-.7.8-1.3 1.7-2 2.3-1 .9-2.1 1.7-3.1 2.7-.5.5-.9 1-1.3 1.6-.4.4-1.3.9-1.1 1.7 2.4 1 4.3-.1 6.8-.4 1.6-.2 3.2-.1 4.4-.6 1.5-.6 2.7-2.5 3.8-4.1 1.1-1.6 2.6-3.1 3.4-4.4.6-.9 1-2.2 1.6-3 .7-1.1 1.9-2.1 2.9-3.2 4.9-5.6 9.6-11.1 14.4-16.5 2-2.2 4.2-4.3 5.7-6.8-2-.1-3.8.6-5.7.9-1 .1-2 .1-3 .3-.9.2-1.7.5-2.7.8-1.8.5-3.7.8-5.7 1.1-3.5.6-6.4 1.3-9.9 1.9-1.4.2-2.7.8-4 .9-2.5.3-3.9.3-6.2 1-1.2.4-3.5 1.1-4.3.2-.9-1-.1-2.3 0-2.9 0-.4-.1-1.7-.2-2.2-.3-1.7-1.6-4-2.4-6.1-.3-.7-2.9-6.1-.4-5.9.7.1 1.3 2 1.8 3 1.4 3.2 3 7.3 5.3 9 1.6 1.2 3 .7 5.2.2 8.7-1.9 16.5-3.3 24.8-5.2-.3-2.1-1-4.6-1.6-6.3-.2-.6-.2-1.1-.3-1.7-.3-.9-.8-1.5-.9-2.3-.1-.8 0-2.5 1.2-2.4.8 0 1.5 1.7 1.8 2.4 1.3 3.4 2 6.6 3.2 9.5 1.8-.3 3.5-.7 5.2-1-.4-1.1-.4-2.6-1-3.4-.6-3.7-2.4-7.6-3.2-11.8-.2-1.3-.6-3.5 1-3.4.9 0 1 1.1 1.6 1.7 0 2.1.7 3.2 1.2 4.8 1.2 3.6 1.9 7.3 3.7 10.2.2.6.5 1.5 1.4 1 0-2.9-1.8-5.8-2.4-8.2-.5-1.6-.9-4.2.9-4 1.3.1 1.3 2.4 1.7 3.9.2.9 1 2.5 1.6 4 .5 1.5.9 3.2 2.1 3.4 1.5.3 3.7-1.2 5.2-1-.3-1.3-.6-2.6-1.2-4.2-.5-1.4-2.1-4.8 0-4.9 1.6-.1 2.1 2.5 2.6 4 .6 1.8 1 3.5 2.2 4.3 4.3-.7 8.2-2.3 12.4-2.7.6-1.2 2.2-2 2.2-3.4 0-.5-.7-1.8-1.1-2.8-5.2-12.3-9.9-24.3-14.8-36.5-.7-1.9-1.7-3.7-2.3-5.7-.4-1.2-.7-2.4-1.2-3.5s-1.1-2.1-1.6-3.2c-3.3-7.6-6.3-15.6-9.3-23.2-4.2 0-8.9-.1-13.3-.2-1.8 0-3.5-.6-5.1-.6.5.7 1.6 1.2 2.4 1.8zM82.2 67c0 1.1 1.4 3.4 1.8 4.7v.1c.5 1 1.7 2.8 2.4 3.9.8 1.1 1.7 3.3 2.7 3.7 2.3.8 4.6-.9 4.3-3.3-.1-.7-.9-1.3-1.3-2.3-.2-.4-.2-.9-.4-1.3-.3-.6-1.4-1.8-2.2-3-.4-.6-.6-1.3-.9-1.8-.3-.5-.9-.9-1.4-1.4-1-1.1-1.3-1.9-2.9-1.6-1 0-2.1.9-2.1 2.3zM97 100.1c1.2.9 2.3 2 3.4 2.6 4.3 1.9 12.1 1.7 17 .8 1.4-.2 2.8-.2 3.9-.6 1.5-.4 3.2-1.4 4.7-2.1 2.2-1.1 4.2-2.1 5.7-3.4.4-.4.9-.7 1.3-1.1 3-2.9 5.2-6.7 6.9-10.9.6-1.5 1.5-2.9 1.8-4.2.6-2.9-.2-5.2-1.4-6.8-1.2-1.5-2.8-2.3-4.7-3.4-1.9-1.1-4.2-2.3-6.9-2.4-3.1-.2-8.1-.3-11.2.2-3.2.5-6.4 2.4-9.4 4-1.4.7-2.7 1.5-3.9 2.8-1.1 1.2-2.7 2.5-3.1 3.7-.2.4-.1 1-.2 1.6-.3 1.9-.1 2.9.4 4.9.3 1 .5 2.2.8 3.2.4 1.3 1.2 2.6 1.7 3.8.2.5.3 1 .4 1.4.5 1.2 2.5 2.8 2 4.4-.5 1.6-3.4.3-4.7.1-.9-.7-.8-1.8-1.3-2.8-.1-.3-.5-.5-.7-.8-1-1.6-1.7-3.3-2-5.2.6-1.3 1.5-2.4.9-4.3-.9-1.4-2.7-.7-3.7.1-2 1.8-2.9 6.3-2.3 9.9.4.1.2.7.4 1 1 1.4 2.6 2.3 4.2 3.5zm102.6-12.3c-.4.7.2 1.5.4 2.1 4.7 10.6 9.9 21 14.4 31.7 3.6 8.5 7.3 17.3 11 26 .5 1.2 1.2 2.9 1.9 4.2.7 1.2 1.8 2.7 3.8 2 .2-1.1-.5-2.1-.9-3.1s-.8-2-1.3-2.9c-1-1.9-2.2-3.8-2.9-5.7-.5-1.4-.9-2.7-1.4-4.1-.5-1.3-1.2-2.6-1.8-3.9-1.1-2.7-2-5.4-3.2-8-.9-1.9-2-3.9-2.9-5.9-1.9-4-3.8-8-5.5-12-.9-2-2.1-4-2.8-6-.4-1.4-.8-2.6-1.3-3.9-1.6-3.7-3.2-7.4-5.1-10.9-.9.3-2 .1-2.4.4zm-91.4 27.9c.6 1.3 1.1 2.5 1.7 3.8.4.9 1.1 1.7 1.4 2.6.3.7.4 1.4.7 2.1 1.2 3 3.5 5.2 4.3 8.2.2.7.2 1.5.4 2.2.2.8.7 1.8 1.1 2.7.4.9.8 1.9 1.2 2.7.6 1 1.6 1.8 2 3 .3.8.3 1.8.6 2.7.6 1.9 1.8 3.6 2.6 5.4.4.9.8 1.8 1.2 2.8.4.9 1.1 1.8 1.4 2.7.2.4.3 1.4.6 2 .7 2 2.1 4.4 2.9 6.2 2.3 5.2 4.7 10.6 7.1 15.9.5 1.1 1 2.8 1.8 2.9 1.9.1 1.6-3 1.1-4.3-.7-2.1-2.2-3.7-3-6-.2-.5-.1-1.1-.3-1.8-.5-1.6-1.5-3.3-2.2-5-3.9-8.5-7.4-16.8-11.1-25.3-1-2.4-2.2-5.1-3.4-7.4-.5-.8-1.1-1.6-1.3-2.3-.1-.3-.1-1.1-.2-1.6-.2-.7-.8-1.5-1.1-2.3-1.9-4.2-3.5-7.9-5.3-12.2-.6-1.4-1.5-4.3-2.4-4.7-1.5-.6-2.2.3-2.7 1-.5 1.4.3 2.7.9 4zm-47.9 48.8c-.4 1.1-.4 2.5-.8 3.9-.4 1.3-.8 2.8-.7 4 .2 1.8 1.4 4 2.3 5.2.8 1.1 1.9 1.8 3 2.8 1.8 1.6 2.7 1.8 5 2.7.8.3 1.7.7 2.7.9.6.1 1.3 0 2.1.1 1.8.2 3.3.7 4-.3.7-.9-.1-3.6-.6-4.8-.3-.7-.9-1.4-1.3-2.3-.7-1.5-.9-3.3-1.4-4.8-.2-.6-.9-1.5-1.2-2.2-.7-1.7-1.3-3.5-1.8-5.7-.4-1.7-.9-4.5-2.2-5.2-.7-.4-2-.4-2.7-.2-2.9.5-5.4 3.3-6.4 5.9zm150.8 9.3c-.7.6-1.2 1.9-1.9 2.8-.5.6-1.3 1-1.9 1.7-.8.9-1.3 2.1-2.1 2.9-.5.5-1.3.8-1.8 1.3s-.9 1.2-1.4 1.8c-2.1 2.2-4.1 4.2-6.1 6.5-1 1.1-1.9 2.4-3 3.4-.8.7-1.7 1.3-2.4 2s-1.4 1.5-2.1 2.3c-2.7 3.3-5.3 6.3-8.5 9.4-1.5 1.5-4.2 3.5-3.9 5.1.2.9 1.8 1.4 3.2 1.2.7-.1 1.9-1.2 2.7-1.9 5.7-5.2 11-10.7 16.1-16.1 3.2-3.4 5.8-6.8 8.9-9.5 1.6-1.5 3.3-3 4.5-4.7 1.3-1.7 2.4-3.8 3.9-5.3.4-.5 1.3-.9 1.9-1.7.5-.6 1.4-1.7 1.2-2.4-.2-1-1.9-1-3.2-.8-1 .3-3.6 1.6-4.1 2zm-9 .7c-3.9.4-5.1 2.8-7.1 5.2-3.4 4.1-6.2 7.7-9.8 11.9-3.3 3.8-6.5 7.7-9.8 11.8-1 1.3-3 3-2.8 4.4.1.9 1 1.6 2.2 1.6.9-.1 2.4-1.5 3.3-2.4 2.1-2.3 3.7-4.1 5.5-6.2.9-1.1 2-2 2.9-3 2.7-3.1 5.7-6.2 8.3-9.2.9-1.1 1.7-2.3 2.6-3.3.8-.8 1.8-1.5 2.6-2.3 1.6-1.7 3-3.6 4.5-5.3.7-.8 1.8-1.7 1.9-2.9-1.1-.3-2.9-.5-4.3-.3zM66.8 224.7c2.7 1.2 5.2 2.7 8.9 2.7.5 0 1.1-.2 1.8-.3 3.5-.5 5.7-1.6 7.8-3.2.4-.3.9-.7 1.2-1 1.2-1.2 1.5-2.7 2.6-4.3.6-1 1.3-2.3 1.6-3.2 1.1-3.6-.2-7.8-2-9.9-.9-1-2.2-1.6-3.4-2.3-.2 0-.1.3-.4.2-.4 1.1-.8 2.1-1.2 3.2-1.5 1.2-2.4 3-5 3.1-1.3 1.1-3.7 1-5.9 1.2.8 2.5 3.1 3.8 5.2 4.8 1.4.6 3 .9 4.1 2-2.5 2.1-6.5 2.7-10.6 2-.5-.1-1.1-.5-1.7-.6-.4-.1-.8.1-1.1 0-.9-.2-1.7-.8-2.6-1.1-.4-.2-.9-.1-1.2-.2-1.3-.5-2.4-1.6-3.7-1.4.5 3.5 3.5 5.8 5.6 8.3z"/><path class="st8" d="M166.9 70.8c-.5-4.8 2.5-5.6 7-6 2.7-.2 4.3.4 5.8 1.4 1.6 1.2 1.7 2 .8 4.1-.6 1.3-1 1.5-2.1 2.1-2 1-5.2 1.7-8.1.9-1.6-.5-2.6-1.2-3.4-2.5zM110.3 85.6c-.1-1.9 0-2.4 1.1-3.7 1.3-1.5 3.3-2.9 6-3.2 1.1-.1 2.6 0 3.7.2.3.1.4.3.8.4.4.1.8.1 1 .2 1.2.6 2.3 2.3 1.9 4.5-.1.5-.9 1.9-1.2 2.3-.7.9-2.4 2.1-3.8 2.4-.9.2-2.5.2-3.7.1-2.9 0-4.7-1.2-5.8-3.2zM294.9 89c3.8-1.1 8.1-1.6 12.1-1.2.4 0 1.2.2 1.8.3 1.2.4 3 1.1 4.2 1.9 1.3.8 2.8 1.8 3.4 2.7.3.4.4 1 .8 1.6.6.9 1.2 1.8 1.8 2.9.7 1.2.9 2.2 1.3 3.8.2.7.5 1.6.6 2.1.1 1.9-1.7 4.3-3 4.5-1.7.3-3.4-.8-4.8-.4-1.6-.6-3.2-1-4.8-1.6-1.5-.5-3-1.3-4.5-1.7-2.5-.6-5.8-.4-8.8-.1-1 .1-2.3.3-3.2.6-.3.1-.5.3-.8.4-.7.3-1.6.4-2.3.7-1.2.4-2 .7-3.1 1-.6.2-1.9.5-3 .3-.4-.2-.7-.6-1.2-.8-.5-1.4-1.5-2.5-2.2-3.9-.3-.6-.7-1.3-1.1-2-.4-.6-.9-1.4-1-2-.1-.8.2-2.1.7-2.6.3-.4 1.1-.5 1.7-.9 1.5-1 2.6-2.1 3.8-3.5.7-.9 2.1-1.8 1.4-3.7-.4-1.1-2.3-1.2-2.9-1.9-1.5-1.6-.4-4.7 1.9-5 2-.3 5.5.5 6.9 1.1 1.6.7 2.1 1.7 2.9 3.3.3.6.8 1.2.9 1.7.1.8-.2 1.7.5 2.4zm-8.8-4.5c.2 2 1.7 1.6 2 3.1.2.9-.3 3-.7 3.8-.7 1.6-2.8 2.9-3.7 4.3-.3.5-.7 1.3-.7 1.8 0 1.5 2 3.7 3.2 4 2 .5 3.8-.5 5.4-.8 1-.2 2.1-.6 3.2-.8 2-.3 4.2-.1 6 .1 2.8.3 5.8.6 8 1.2 2 .5 4.1 2 6.3 1.7 2.5-.4 1.5-2.9.4-4-.2-.2-.3-.5-.6-.8-1.3-1.6-2.1-2.3-3.9-3.2-1.7-.8-3.6-1.6-5.4-2.1-2.5-.6-6.5-.8-9.4-.4-1.5.2-5.8 2.3-6-.1-.1-.8.9-1.5 1-2.1.7-3.8-2.5-5.4-5-6-.1 0 .1.3-.1.3zM145.4 114.7c0 1.2 1.2 2 2 2.6.9.6 2 1.1 2.9 1.6 1.9 1 3.8 2.2 5.8 3.1 1.2.6 2.6.9 3.9 1.6 1.2.6 2.4 1.1 3.7 1.7 1.2.6 2.7.8 4.1 1.3 3.8 1.5 8.2 2.4 13 3.1 3.1.5 6.4 1 9.8 1 1.1 0 2.6-.4 3.8-.3 1.1.1 2.3.7 2.3 1.7.1.9-1.4 2.2-2.1 2.6-.7.4-2 .7-2.8.8-3.5.4-6.9-.2-10-.7-3.1-.5-6.2-1-9.1-1.8-1.5-.4-3.1-.5-4.4-.9-.9-.3-1.8-.8-2.8-1.2-4.6-1.9-9.4-3.5-13.5-5.9-1.7-1-3.5-1.9-4.9-2.9-.7-.5-1.1-1.2-1.8-1.8-.6-.6-1.4-1.1-1.9-1.7-.7-.7-1-1.7-1.8-2.3-1.6-1.4-5.6-2.8-7.2-.6-1.4 1.9-.3 7.7-2.9 7.8-2.7.1-1.9-3.1-1.7-5.1.2-2.1.2-3.5.8-5.1.8-2.3 1.4-3.1 3-4.9.7-.7 1.2-1.7 1.8-2.4 1.2-1.4 3.4-3 4.4-3.4 1.2-.5 4.8-1.4 5 .4.1 1.3-1.6 1.9-2.6 2.4s-2.4 1.2-2.4 2.4c0 3.1 7.6 2.6 10.6 3.2 1 .2 2 .6 3.1.8 3 .6 7.4 1.2 10.4 1.2 1.2 0 2.6-.1 3.3-.1.9 0 1.9.2 2.4.2 5.1 0 10-1.8 14.1-3.1 2-.7 3.2-1.3 4.8-2.6 1-.8 2.4-1.9 3.3.3-.4 7-7.4 8.4-13.8 9.8-1.1.2-2.1.7-3.1.8-4.7.5-9.8-.1-14.3-.7-2.6-.3-5.1-1.1-7.5-1.6-2.7-.4-5.3-.7-7.7-1.3zM208.9 139.2c-.9-1.1-1.2-2.7-1-4.4 1.8-.7 2 1.5 2.8 3.4 2.6 6.8 5.3 14.2 7.9 21 .5 1.4 1.3 2.9 1.2 3.5-.1.5-.6 1.2-1.2 1.2s-1.3-1.8-1.7-2.7c-1.3-3.4-2.3-6.4-3.4-9.4-1.8-4.4-3.2-8.2-4.6-12.6zM151.5 138.5c1.9-.5 2.2 2.5 2.9 4.5 2.8 8.6 5.6 17.6 8.4 26.4.4 1.3 1.4 3.6 1.1 4.7-.2.6-.7 1.1-1.4 1-1-.1-1.4-2.8-1.9-4.1-3.2-9.8-6.5-19.5-9.5-29.3-.4-1.2-1.1-2.8.4-3.2zM214.8 163.1c-1.5.6-1.7-1-2.4-1.4-2.1-5.9-4.1-12.1-6.3-18.2-.3-.7-.7-1.3-.3-2.3 0-.2.1-.3.2-.3 2.2.1 2.8 3.6 3.5 5.7 1.8 4.8 3.3 9 5.1 13.8.2.6.9 1.8.2 2.7zM157.6 172.9c-1.3.1-1.5-1.6-1.9-2.4-1.2-3-2.4-6.2-3.7-9.3-.9-2.1-1.5-4.3-2.2-6.4-1.1-3-2.2-5.4-3.4-8.1-.5-1.1-1.3-3.4.7-3.4 1.2 0 1.7 1.8 2.1 3.1.8 2.2 1.8 4.5 2.6 6.8.3 1 .3 1.8 1 2.4 1.3 4.3 2.8 8.7 4.3 13.1.4 1.2 1.5 2.9.5 4.2zM163.6 145.3c.8 2.7 2.3 6.3 3.4 9.4.6 1.8 1.7 3.8-.3 4.4-1.5-.9-2.1-3.5-2.9-5.8-.8-2.3-1.5-4.6-2.2-6.4-.1-.4-.7-1.2-.6-1.7.5-1.1 2.1-.3 2.6.1zM148.3 181.2c-1 .3-1.8-.3-2.3-.9-1.8-2-2.9-5.4-4.1-8.2-2.1-5-4.3-10.2-6.7-15.3-.5-1-1.3-2-1.1-3.2 2.8-2.2 4 3.3 5.1 5.3.3.5.8 1 1 1.3.3.6.3 1.3.7 2 .5 1.1 1.3 2.2 1.9 3.4 1.4 2.8 2.5 6.4 3.8 9.5.4 1 1 1.9 1.4 2.8.4 1.1 1 2.4.3 3.3zM169 174.7c-.5.6-1.2.8-2.2.9-1.7-5.3-3.7-11.7-5.5-17.6-.3-.9-.9-1.7-.9-2.3 0-.2.2-1.3.3-1.3.2-.1.6 0 .8 0 .7.1 2 4 2.2 4.8 1.6 4.4 2.8 8.7 4.5 13 .4.6 1 1.5.8 2.5zM155.1 174.5c-1.6 1.6-3.1-1.8-3.7-3.1-.8-1.8-1.5-4.2-2.4-6.5-.6-1.6-1.4-3.1-2-4.8-.4-1-.7-1.6-.6-2.6 1.9-1.2 2.8 2.4 3.3 3.8 1.9 4.3 3.9 9.1 5.4 13.2z"/><path class="st9" d="M113.4 217.1c1.6.5 3.9 0 6.2-.1 1.6-.1 5.6-.7 5.8.6.3 1.6-2.2 1.5-3.7 1.6-3.2.2-6.1.4-9.5.7-1.5.1-3.7.5-3.9-.8-.1-.5 1.3-1.8 2-2.4 5.3-4.8 10.9-9.9 16.1-14.5 3.2-2.9 6.1-5.8 9.1-8.4 3.1-2.7 6.1-5.9 9.2-8.3.5-.4 1.3-.2 1.4.7.2 1.2-2.9 3.7-3.7 4.3-10.1 8.9-19 17.2-29 26.6z"/><g id="Layer_2" class="st0"><path class="st1 st6" d="M87.1 213.3c7.7 0 7.7-12 0-12s-7.7 12 0 12z"/><path class="st1 st6" d="M78.6 220c7.7 0 7.7-12 0-12s-7.7 12 0 12z"/><path class="st1 st6" d="M85.7 222.8c7.7 0 7.7-12 0-12s-7.7 12 0 12z"/><path class="st1 st6" d="M77 230.1c7.7 0 7.7-12 0-12-7.8 0-7.8 12 0 12z"/><path class="st1 st6" d="M81.8 228.9c7.7 0 7.7-12 0-12s-7.7 12 0 12zM65.7 227c7.7 0 7.7-12 0-12s-7.7 12 0 12z"/><path class="st1 st6" d="M70.8 230c7.7 0 7.7-12 0-12s-7.7 12 0 12zM89.6 218.9c7.7 0 7.7-12 0-12s-7.7 12 0 12z"/></g></g></svg>