<?xml version="1.0" encoding="utf-8"?>
<!-- Generator: Adobe Illustrator 19.2.0, SVG Export Plug-In . SVG Version: 6.00 Build 0)  -->
<svg version="1.1" xmlns="http://www.w3.org/2000/svg" xmlns:xlink="http://www.w3.org/1999/xlink" x="0px" y="0px"
	 viewBox="0 0 320.9 264.6" style="enable-background:new 0 0 320.9 264.6;" xml:space="preserve">
<style type="text/css">
	.st0{display:none;}
	.st1{display:inline;}
	.st2{fill:none;stroke:#F9F1DA;stroke-miterlimit:1;}
	.st3{fill:none;stroke:#F9F1DA;stroke-width:6;stroke-miterlimit:1;}
	.st4{fill:none;stroke:#F9F1DA;stroke-width:2;stroke-miterlimit:1;}
	.st5{display:none;fill:#D1D3D4;}
	.st6{fill:#F9F1DA;}
	.st7{fill:#FFFFFF;}
	.st8{fill-rule:evenodd;clip-rule:evenodd;fill:#EA5385;}
	.st9{display:none;fill-rule:evenodd;clip-rule:evenodd;fill:#6EC06C;}
</style>
<g id="Layer_3" class="st0">
	<g class="st1">
		<path class="st2" d="M80.6,214.4c0.3-1,0.8-1.8,1.4-2.6"/>
		<path class="st2" d="M77.4,211.2c3.9-0.7,8.2,0.9,10.6,4.1"/>
		<path class="st3" d="M85.4,218.2c0-0.9,0-1.8,0-2.7c0-2-2.4-3.3-4.3-2.6"/>
		<path class="st3" d="M79.8,210.5c2.2-0.1,4.3-1.2,5.7-2.8"/>
		<path class="st3" d="M85.4,204.6c-0.6,2.2-0.2,4.7,1.1,6.6c0.6,0.9,1.4,1.7,1.8,2.7c0.7,1.8,0.1,3.8-1,5.4c-1.1,1.6-2.6,2.7-4.1,4
			c-0.8,0.7-1.7,1.5-2.6,2.1c-2,1.2-4.5,1.2-6.8,0.7s-4.4-1.7-6.4-2.8"/>
		<path class="st4" d="M75.7,211.8c2.1,1.9,4.3,3.9,6.4,5.8c0.2,0.2,0.5,0.3,0.6,0.1"/>
		<path class="st4" d="M74.2,211.8c0.7,0.9,2,1.1,3.1,1.2c1.4,0.1,2.7,0.2,4.1,0.4c0.4,0,0.8,0.1,1,0.3c0.2,0.2,0.3,0.4,0.4,0.6
			c0.6,1.3,0.7,2.7,0.5,4.1c0,0.3-0.1,0.6-0.2,1c-0.1,0.2-0.1,0.5-0.2,0.7c-0.2,0.7-0.3,1.4-0.7,2c-0.4,0.6-1,1.1-1.7,1.1
			c-0.5,0-1-0.2-1.5-0.4c-2.4-0.9-5-0.9-7.6-1.3c-0.2,0-0.5-0.1-0.6-0.3c-0.1-0.3,0.4-0.5,0.8-0.6"/>
		<path class="st4" d="M81.6,220c-1.4-0.3-2.9,0-4.2,0.7c-1.6,0.9-2.9,2.5-4.7,2.6"/>
		<path class="st4" d="M75.6,223.4c0.8-0.1,1.6-0.6,2.3-1c1.7-1.1,3.3-2.1,5-3.2"/>
		<path class="st4" d="M77.6,212.5c1.3-1.1,2.8-3.1,4.2-4.1c-1.6,1.3-6.6,4.6-8.5,2.8c1.8,1.6,3.6,3.1,5.8,4.2"/>
		<path class="st4" d="M81.1,214.2c0,0.1,0,0.2,0,0.3"/>
		<path class="st4" d="M85.4,204.2c1.2-0.2,2.4,0.7,3.2,1.6c1.5,1.8,2.4,4.2,2.5,6.5"/>
		<path class="st4" d="M85.4,205.4c0.1,0.5,0.3,0.9,0.5,1.4c1,1.9,3.4,2.9,4.1,4.9"/>
		<path class="st4" d="M84.7,219c-1.7-2.3-3.4-4.6-5.2-6.9"/>
		<path class="st4" d="M76.4,221.7c-2.7,0.2-5.5-0.2-8.2-0.5c-0.8-0.1-1.5-0.2-2.2-0.5c-1.1-0.5-2-1.6-3.3-1.8
			c-1.1,2.5,7,3.4,8.6,3.8"/>
		<path class="st4" d="M70.3,219.1c2.8-0.5,5.4,1.1,8.1,2.1c2.1,0.8,4.3,1.2,6.6,1.2"/>
		<path class="st4" d="M67.5,224.9c-0.5-1.4-2.7-1.6-3-3"/>
		<path class="st4" d="M71.7,219.9c0.2,1.1,0.8,2,1.4,2.9c1.5,2,3.4,3.6,5.6,4.8"/>
		<path class="st4" d="M72.5,220.1c1,0,2.1,0.5,2.8,1.2"/>
		<path class="st2" d="M79.5,219.8c0-0.1,0.1-0.2,0.2-0.3c0.3-0.2,0.5-0.4,0.8-0.7c0.2-0.1,0.3-0.3,0.5-0.4c0.2-0.1,0.3-0.2,0.5-0.2
			c0.5-0.2,1-0.4,1.4-0.6"/>
		<path class="st2" d="M70.1,219.5c0.5,0.4,1,0.9,1.4,1.3"/>
		<path class="st2" d="M69.7,219c2.4,1.5,4.7,3.2,6.9,5"/>
		<path class="st2" d="M61.6,217.9c1.8,2.4,3.8,4.7,5.9,6.8c1.5,1.5,3.2,2.9,5.2,3.5"/>
		<path class="st2" d="M89.6,209.7c-0.3-0.8-0.7-1.6-1.3-2.2c-0.1-0.6-0.2-1.3-0.5-1.9"/>
		<path class="st2" d="M85.1,203.7c-0.1,0.8,0.1,1.5,0.3,2.3c0.2,0.8,0.4,1.5,0.6,2.3"/>
		<path class="st2" d="M85,203.3c-0.2,0.8-0.5,1.5-0.7,2.3"/>
		<path class="st2" d="M73.1,211.6c1.2,0,2.5-0.1,3.7,0.1c1,0.1,2.1,0.4,3.1,0.7c2.2,0.6,4.3,1.5,6.5,1.9"/>
		<path class="st2" d="M82,218c0-0.7,0-1.4,0-2.1"/>
		<path class="st2" d="M80.8,220c-0.2-1,0.3-2,0.7-3c0.4-1,0.7-2.1,0.9-3.1"/>
	</g>
</g>
<g id="_x30_1_x5F_T31148_xA0_Image_1_">
	<rect x="-19.4" y="-20.1" class="st5" width="359" height="302"/>
	<g>
		<path class="st6" d="M318.3,104.8c-0.5-1.6-0.6-2.6-1.3-3.8c-0.6-1-1.2-2-1.8-2.9c-0.3-0.6-0.5-1.2-0.8-1.6
			c-0.6-0.8-2.1-1.8-3.4-2.7c-1.3-0.8-3-1.5-4.2-1.9c-0.5-0.2-1.3-0.3-1.8-0.3c-4-0.4-8.3,0.1-12.1,1.2c-0.7-0.6-0.4-1.6-0.7-2.3
			c-0.1-0.4-0.6-1.1-0.9-1.7c-0.8-1.6-1.3-2.7-2.9-3.3c-1.4-0.6-4.9-1.4-6.9-1.1c-2.2,0.3-3.4,3.4-1.9,5c0.6,0.7,2.5,0.8,2.9,1.9
			c0.7,1.9-0.7,2.8-1.4,3.7c-1.1,1.4-2.3,2.6-3.8,3.5c-0.5,0.3-1.4,0.5-1.7,0.9c-0.4,0.5-0.8,1.8-0.7,2.6c0.1,0.6,0.6,1.4,1,2
			c0.4,0.7,0.8,1.4,1.1,2c0.8,1.4,1.7,2.5,2.2,3.9c0.5,0.1,0.8,0.6,1.2,0.8c1.1,0.2,2.4-0.2,3-0.3c1.1-0.3,1.9-0.6,3.1-1
			c0.8-0.3,1.6-0.4,2.3-0.7c0.2-0.1,0.5-0.4,0.8-0.4c1-0.3,2.2-0.5,3.2-0.6c2.9-0.3,6.3-0.5,8.8,0.1c1.6,0.4,3.1,1.1,4.5,1.7
			c1.6,0.6,3.2,1,4.8,1.6c1.4-0.4,3,0.8,4.8,0.4c1.3-0.2,3.1-2.7,3-4.5C318.9,106.4,318.5,105.5,318.3,104.8z"/>
		<path class="st7" d="M270.3,102.4c-1,0.2-1.7,1-2.7,1.7c-2.7,1.8-6.3,2.8-9.4,3.9c-2.1,0.7-4.3,1.4-6.5,2.2
			c-2.2,0.8-4.9,1.3-7.2,1.7c-6.5,0.9-15.7,0.7-22.6,0.1c-1.1-0.1-2.3,0-3.3-0.1c-0.8-0.1-1.8-0.7-2.7-1c-1-0.4-2-0.7-2.7-1.1
			c-1.4-0.8-1.9-1.6-2.8-2.9c-0.7-1-1.2-1.9-1.7-3c-0.3-0.6-0.3-1.2-0.6-1.8c-0.5-1.1-1.4-1.9-1.8-3.1c-0.5-1.5-0.7-2.9-1.3-4.3
			c-0.6-1.3-1.4-2.5-1.9-3.9c1.3-1.3,2.6-1.3,3.9-2.2c1.5-1,2.2-2.8,3.1-4.7c1-2,1.8-3.7,1.9-6c0.2-4.8-1.2-10.5-3.4-13.3
			c-1.4-1.7-3.3-3.3-5-4.5c-1.9-1.3-3.8-2.2-6.1-3.3c-1.6-0.7-3.6-1.6-4.8-1.8c-2.1-0.3-5.1,0.8-6.9,0c-0.6-0.2-1.3-1.6-1.8-2.7
			c-1.5-3.2-3.2-6-4.7-8.8c-2.2-4.1-4.1-8.1-6.1-11.9c-4.2,0.2-8,1.6-12,2.3c-4,0.8-7.9,2.1-12.2,2.2c-1.4-2.2-0.2-3.9,0.8-6.2
			c3.4-7.7,6.9-15,10.5-22.1c0.7-1.3,1.6-2.4,1.7-3.9c-2.4,0.2-4.7,1.1-7,1.8c-21.1,5.9-42.1,12-63.2,17.6
			c-11.8,3.2-23.3,6.6-35.1,9.9c-2.1,0.6-5.2,1.1-6.9,2.1c-1.1,0.7-2.1,2.4-3.3,3.9c-3.4,4-6.8,8-9.9,11.9
			C28,62.3,20.2,72.3,11.1,83.3c-3.3,4-6.2,8-9.8,12c-0.8,0.8-3.5,3-3.3,4c0.1,0.6,1.3,1,2.2,1.6c0.9,0.6,1.7,1.2,2.2,1.6
			c1.4,0.9,3.8,1.9,4.2,3.3c0.5,1.8-0.2,4.7-0.4,6.9c-0.5,4.8-1.2,8.8-1.2,14c0,4.3-0.2,8,0.8,10.8c0.3,0.8,0.5,1.9,1.3,2.6
			c0.8-1,1.2-2.2,1.8-3.3c0.6-1.2,1.1-2.3,1.8-3.4c1.3-2.2,2.2-4.6,4.1-6.3c0.5-0.5,1.7-1.4,2.4-1.3c0.7,0.1,1.5,1.4,1.9,2.1
			c0.4,0.7,0.5,1.6,0.8,2.4c0.6,1.5,1.3,3.1,1.8,4.7c0.3,0.9,0.3,1.8,0.6,2.7c0.3,0.9,1.5,3.7,3,3.2c0.7-0.2,0.7-1.4,0.7-2.4
			c0-2,0.2-4.3,0-6c-0.1-1.1-0.4-1.9-0.6-2.7c-1.9-8.5-2.1-19.7-1.6-29.8c0.2-3,0.2-6.5,1.6-8c0.8-0.9,1.8-0.6,3.3-0.9
			c0.6-0.1,1.5-0.5,2.6-0.7c2.1-0.4,6.9-1.4,8.5-0.7c0.6,0.3,1.4,1,1.3,2.2c-0.1,1.7-3,1.9-3.1,3.7c-0.1,0.8,0.9,2.6,1.4,3.7
			c0.6,1.3,1.1,2.7,1.6,3.7c5.5,12.6,10.2,23.9,15.9,36.2c1.5,3.1,3.3,7.2,4.7,11c0.5,1.2,1.4,3,1.3,3.9c-0.1,1-1.9,2.1-2.9,2.9
			c-4.4,3.5-8,8.1-9.7,13.8c-0.4,1.4-1.1,3-1.3,4.5c-0.5,3.3-0.9,6.9-0.7,10.6c0.2,4,2,6.6,3.8,9c0.7,1,1.4,2.2,2.1,2.9
			c2.6,2.7,6.7,4.2,10.9,5.5c4.3,1.3,9.1,1.5,13.4,3c-0.2,1.3-0.8,2.2-1.2,3.2c-1.3,0.7-2.1,1.5-3.9,2c-1.6,0.5-3.3-0.2-4.9,0.3
			c-4.5,1.5,0.9,8,2.3,9.3c-3.4-0.7-6.1-1.4-8.6-2.8c-2.5-1.4-4.1-3.5-6.9-4.4c-1.7,2-1,4.7-0.4,6.5c0.2,0.7,0.4,1.4,0.6,2
			c1.5,4.6,4.3,8.3,7.5,10.6c2.3,1.7,5.2,2.7,8.7,3.2c2.4,0.4,3.8,0.2,6.2-0.1c1.1-0.2,2.4-0.2,3.3-0.6c0.6-0.2,1-0.7,1.6-1
			c0.6-0.3,1.3-0.5,1.8-0.8c1.1-0.7,2.3-2,3.1-3c1.1-1.3,2.2-3,3-4.7c0.9-1.7,1.1-3.8,2.6-5.2c0.8,1.6,1.7,2.9,2.7,4.7
			c0.7,1.3,1.4,4.2,2.7,4.8c0.9,0.4,2.4,0.2,3.7,0.1c4.6-0.4,8.4-0.5,13.1-0.9c3.3-0.3,6.6-0.7,9.5-0.2c-0.7,2.5-1.3,5-1.9,7.5
			c-0.4,1.6-0.4,3.2-0.6,5.1c-0.1,0.9-0.4,1.8-0.4,2.9c-0.2,3.4-0.1,7.2,0,10.6c0.1,3.3,0.7,6.6,2.1,8.7c4.2,0.3,9.1,1,13.3,0.7
			c2.2-0.2,4.5-0.2,6.8-0.3c2.2-0.2,4.5,0,6.2-1c1-8.5-8.8-7.2-14.5-9.3c-1.4-4.1-1.4-11-1-16.5c0.2-2.3,0.6-5.1,1.4-7.2
			c0.7-1.6,2.6-4.1,3.9-4.7c0.9-0.3,2-0.2,3.2-0.3c0.7-0.1,1.6-0.4,2.4-0.4c1-0.1,2.1,0.1,3.1,0c0.9-0.1,1.8-0.4,2.8-0.4
			c2-0.2,4.2-0.5,5.7,0.2c0,1.4-0.8,2.6-1.2,3.9c-0.5,1.3-0.9,2.8-1.1,4.3c-0.5,3-1.1,6-1.2,9.5c-0.1,3.1-0.1,7-0.1,10.4
			c0,2.4-0.6,8.8,0.4,10.3c0.7,1,3.8,0.7,6,0.8c2.2,0.1,4.5,0,6.4-0.1c6.2-0.5,11.4,1.4,16.1-0.4c0.1-1.4,0.6-2.7,0.3-4
			c-0.2-1.1-1.7-2.3-2.8-2.9c-1.5-0.8-3.3-0.4-5.1-0.7c-0.7-0.1-1.3-0.7-1.9-0.8c-2.2-0.4-4.2,0.2-5.5-0.7c-2.5-1.6-2-7.4-2-11.4
			c0-2.1,0-4.2,0.2-6.1c0.1-1.1,0.5-2.3,0.8-3.4c0.8-3.7,1.7-7,2.8-10.1c0.5-0.5,1.1-1.3,1.9-1.6c1.5-0.5,4.7-0.2,6.9-0.6
			c3.9-0.6,6-2.8,8.3-5c3.3-3.1,7.1-6.5,9.9-9.6c0.5-0.6,1-1.2,1.6-1.7c1.8-1.5,3.3-3.3,4.9-4.9c2.2-2.2,4.4-4.3,6.5-6.4
			c4.4-4.4,8.4-8.8,12.6-13.3c3-3.2,6.5-6.5,9.8-9.8c1.2-1.2,2.7-2.2,3.2-3.3c0.9-1.7,0.3-2.5-0.6-4.4
			c-5.9-13.5-11.6-27.1-17.3-40.4c-0.4-1-0.9-2-1-3c2.8,0.8,5.6,1.2,8.7,1.9c3.1,0.7,6.5,0.4,9.9,0.8c3.3,0.3,6.5,0.1,10-0.2
			c3.4-0.3,6.8-0.3,10-0.7c3-0.3,6-1.7,8.8-2.7c2.9-1.1,5.4-2.6,7.9-3.7c1.7-0.7,3.8-1.3,4.9-2.1c0.5-0.4,1.1-1.3,1.2-1.8
			c0.3-1.6-1.3-3.4-1.8-4.8C274.7,104,273.4,101.7,270.3,102.4z M72.1,188.7c-5.7-0.7-11.4-2.8-13.9-8.5c-2.4-5.3-0.9-11,1.7-16
			c1-1.8,2.6-2.4,4.1-2.1c2.2-1.1,5.2-0.5,5.7,2.6c1.2,6.5,4.3,12.3,6.5,18.5C77.1,185.7,74.8,189,72.1,188.7z"/>
	</g>
	<g>
		<path class="st8" d="M80.4,201.9c-4.3-1.5-9.1-1.7-13.4-3c-4.2-1.3-8.2-2.8-10.9-5.5c-0.7-0.7-1.4-1.9-2.1-2.9
			c-1.8-2.4-3.5-5-3.8-9c-0.2-3.8,0.1-7.3,0.7-10.6c0.2-1.6,0.9-3.1,1.3-4.5c1.6-5.7,5.3-10.2,9.7-13.8c1-0.8,2.8-1.9,2.9-2.9
			c0.1-0.9-0.9-2.7-1.3-3.9c-1.4-3.7-3.2-7.8-4.7-11c-5.7-12.3-10.4-23.5-15.9-36.2c-0.4-1-0.9-2.3-1.6-3.7
			c-0.5-1.1-1.5-2.9-1.4-3.7c0.1-1.7,3-2,3.1-3.7c0.1-1.2-0.7-1.9-1.3-2.2c-1.7-0.7-6.4,0.3-8.5,0.7c-1.1,0.2-1.9,0.6-2.6,0.7
			c-1.5,0.2-2.5,0-3.3,0.9c-1.3,1.5-1.4,5-1.6,8c-0.5,10.2-0.3,21.3,1.6,29.8c0.2,0.8,0.4,1.6,0.6,2.7c0.2,1.7,0,3.9,0,6
			c0,1.1,0,2.2-0.7,2.4c-1.5,0.5-2.7-2.4-3-3.2c-0.3-0.9-0.3-1.8-0.6-2.7c-0.5-1.6-1.2-3.1-1.8-4.7c-0.3-0.9-0.4-1.7-0.8-2.4
			c-0.3-0.7-1.2-2-1.9-2.1c-0.8-0.1-1.9,0.9-2.4,1.3c-1.9,1.7-2.8,4.2-4.1,6.3c-0.7,1.2-1.2,2.3-1.8,3.4c-0.6,1.1-1,2.3-1.8,3.3
			c-0.8-0.6-1-1.7-1.3-2.6c-1-2.7-0.8-6.5-0.8-10.8c0-5.2,0.7-9.2,1.2-14c0.2-2.2,1-5,0.4-6.9c-0.4-1.4-2.8-2.4-4.2-3.3
			c-0.6-0.4-1.3-1-2.2-1.6c-0.9-0.6-2.1-1-2.2-1.6c-0.2-1,2.6-3.1,3.3-4c3.6-4,6.5-8,9.8-12c9.1-11,16.9-21.1,25.7-32.2
			c3-3.8,6.5-7.8,9.9-11.9c1.3-1.5,2.2-3.2,3.3-3.9c1.7-1,4.7-1.5,6.9-2.1C70.7,26,82.1,22.6,94,19.4c21.1-5.7,42.2-11.8,63.2-17.6
			c2.3-0.6,4.6-1.6,7-1.8c-0.1,1.4-1,2.6-1.7,3.9c-3.7,7-7.1,14.4-10.5,22.1c-1,2.3-2.1,4-0.8,6.2c4.3-0.2,8.2-1.5,12.2-2.2
			c4-0.8,7.8-2.2,12-2.3c2,3.8,3.9,7.7,6.1,11.9c1.5,2.8,3.1,5.6,4.7,8.8c0.5,1,1.2,2.4,1.8,2.7c1.8,0.8,4.7-0.3,6.9,0
			c1.2,0.2,3.2,1,4.8,1.8c2.3,1.1,4.2,2,6.1,3.3c1.7,1.2,3.6,2.9,5,4.5c2.3,2.8,3.6,8.5,3.4,13.3c-0.1,2.3-0.9,3.9-1.9,6
			c-0.9,1.8-1.6,3.6-3.1,4.7c-1.2,0.9-2.6,0.9-3.9,2.2c0.5,1.4,1.3,2.5,1.9,3.9c0.6,1.4,0.8,2.9,1.3,4.3c0.4,1.2,1.3,2,1.8,3.1
			c0.3,0.6,0.3,1.2,0.6,1.8c0.5,1.1,1,2,1.7,3c0.8,1.3,1.4,2.1,2.8,2.9c0.7,0.4,1.6,0.7,2.7,1.1c0.9,0.3,1.8,0.9,2.7,1
			c1,0.2,2.2,0,3.3,0.1c6.9,0.6,16.1,0.8,22.6-0.1c2.3-0.3,5-0.9,7.2-1.7c2.2-0.8,4.4-1.5,6.5-2.2c3.2-1.1,6.7-2,9.4-3.9
			c1-0.7,1.7-1.5,2.7-1.7c3-0.6,4.4,1.6,5.1,3.7c0.5,1.4,2.1,3.1,1.8,4.8c-0.1,0.5-0.8,1.4-1.2,1.8c-1,0.8-3.2,1.4-4.9,2.1
			c-2.5,1-5,2.6-7.9,3.7c-2.7,1-5.7,2.3-8.8,2.7c-3.2,0.3-6.6,0.4-10,0.7c-3.5,0.3-6.7,0.6-10,0.2c-3.4-0.4-6.7-0.1-9.9-0.8
			c-3-0.6-5.9-1.1-8.7-1.9c0.1,1,0.6,2,1,3c5.7,13.2,11.4,26.9,17.3,40.4c0.8,1.9,1.5,2.7,0.6,4.4c-0.6,1.1-2,2.2-3.2,3.3
			c-3.2,3.2-6.7,6.6-9.8,9.8c-4.2,4.5-8.2,8.9-12.6,13.3c-2.1,2.1-4.3,4.2-6.5,6.4c-1.6,1.6-3.1,3.3-4.9,4.9c-0.6,0.5-1,1.1-1.6,1.7
			c-2.8,3.1-6.6,6.6-9.9,9.6c-2.3,2.2-4.5,4.4-8.3,5c-2.2,0.3-5.4,0-6.9,0.6c-0.8,0.3-1.4,1.1-1.9,1.6c-1,3.1-2,6.4-2.8,10.1
			c-0.2,1.1-0.7,2.3-0.8,3.4c-0.2,1.9-0.2,4-0.2,6.1c0,4-0.5,9.8,2,11.4c1.4,0.9,3.3,0.2,5.5,0.7c0.6,0.1,1.2,0.7,1.9,0.8
			c1.8,0.3,3.6-0.1,5.1,0.7c1.1,0.5,2.5,1.7,2.8,2.9c0.3,1.3-0.2,2.5-0.3,4c-4.7,1.8-9.9,0-16.1,0.4c-1.9,0.1-4.3,0.2-6.4,0.1
			c-2.2-0.1-5.3,0.2-6-0.8c-1.1-1.5-0.4-7.9-0.4-10.3c0-3.4,0-7.4,0.1-10.4c0.2-3.5,0.7-6.6,1.2-9.5c0.2-1.5,0.7-3,1.1-4.3
			c0.4-1.3,1.2-2.5,1.2-3.9c-1.5-0.7-3.7-0.4-5.7-0.2c-0.9,0.1-1.8,0.4-2.8,0.4c-1,0.1-2.1-0.1-3.1,0c-0.9,0.1-1.7,0.4-2.4,0.4
			c-1.2,0.1-2.3,0-3.2,0.3c-1.3,0.5-3.2,3-3.9,4.7c-0.9,2.1-1.3,4.9-1.4,7.2c-0.4,5.5-0.4,12.4,1,16.5c5.7,2.2,15.5,0.8,14.5,9.3
			c-1.7,1-4,0.8-6.2,1c-2.2,0.2-4.6,0.2-6.8,0.3c-4.3,0.3-9.1-0.4-13.3-0.7c-1.4-2.1-2-5.4-2.1-8.7c-0.1-3.5-0.2-7.3,0-10.6
			c0.1-1,0.4-1.9,0.4-2.9c0.1-1.9,0.2-3.5,0.6-5.1c0.6-2.6,1.2-5,1.9-7.5c-2.9-0.4-6.2-0.1-9.5,0.2c-4.7,0.4-8.5,0.5-13.1,0.9
			c-1.3,0.1-2.7,0.3-3.7-0.1c-1.3-0.6-1.9-3.4-2.7-4.8c-0.9-1.7-1.9-3.1-2.7-4.7c-1.5,1.4-1.7,3.5-2.6,5.2c-0.8,1.6-1.9,3.3-3,4.7
			c-0.8,1-2,2.3-3.1,3c-0.5,0.3-1.2,0.4-1.8,0.8c-0.6,0.3-1,0.8-1.6,1c-0.9,0.3-2.2,0.4-3.3,0.6c-2.4,0.4-3.8,0.5-6.2,0.1
			c-3.4-0.5-6.3-1.5-8.7-3.2c-3.2-2.4-6.1-6-7.5-10.6c-0.2-0.6-0.3-1.3-0.6-2c-0.6-1.8-1.3-4.6,0.4-6.5c2.8,1,4.3,3.1,6.9,4.4
			c2.6,1.4,5.2,2.1,8.7,2.8c0.1,0,0.1,0,0.1,0.1c-1.2-1-7.1-7.9-2.4-9.4c1.5-0.5,3.3,0.1,4.9-0.3c1.8-0.5,2.5-1.3,3.9-2
			C79.7,204.1,80.3,203.2,80.4,201.9z M107.5,30.9c-1.5,0.3-2.8,0.9-4.2,1.1c-1.9,0.3-3.2,0.5-4.8,0.9c-1,0.3-2.1,0.5-3.1,0.7
			c-5.2,1.1-8.9,4-13.8,5.1c-1,0.2-2.2,0.2-3.2,0.6c-2.1,0.7-4.9,3-4.5,5.8c0.4,2.7,3.6,3.1,6.7,2.4c1.4-0.3,2.8-1.2,4.2-1.9
			c6.8-3.4,15.9-4.9,23.8-7.1c2.2-0.6,4.3-1.5,6.3-2c1.4-0.3,3.2-0.6,4.9-0.9c1.2-0.2,3.4-0.8,3.4-2.3c0-1-1.7-2.5-3-2.9
			c-1.8-0.6-6.6-0.5-8.2-0.3C110.4,30.3,109,30.7,107.5,30.9z M97.6,73.2c0.9-1.3,1.9-2.5,3.1-3.4c2.1-1.7,4.8-3.1,7.5-4.5
			c2-1,4.5-1.5,6.9-2.1c0.8-0.2,1.6-0.7,2.3-0.8c0.9-0.1,1.9,0.1,2.9,0c1.7-0.1,3.7-0.6,5.5-0.6c1.2,0,2.7,0.5,3.7,0.3
			c0.7-0.1,1.2-1.1,2-1.8c2.3-2.1,5.4-4,8.5-5c3.6-1.1,7.8-1.1,12.1-0.8c3.4,0.2,6.2,0.7,8.8,1.6c1,0.3,1.7,0.8,2.6,0.8
			c1.5-0.1,2.6-1.8,4-2.4c2.2-1.1,4.6-1.2,6.1-2.3c0.5-0.4,1.3-1.3,1.3-1.8c0.1-1.1-1.2-2.9-1.8-4.1c-1.3-2.9-2.3-5.3-3.7-8.1
			c-0.6-1.4-1.2-3.1-2.3-3.7c-1.8-0.8-4,0-5.8,0.3c-5.9,1.2-11.7,2.3-17.4,3.4c-2.4,0.5-4.9,0.6-7.1,1.2c-1.3,0.4-2.4,1-3.9,1.3
			c-3.6,0.8-7.2,1.6-10.9,2.3c-3.7,0.7-7.4,1.1-11,2.2c-5.1,1.6-10.9,2.3-16,3.8c-1.7,0.5-3.1,1.4-4.8,1.9c-1.1,0.3-2.9,0.4-4,1.2
			c-2.8,2.1-0.2,4.5,1.1,6.5c0.5,0.7,0.9,1.5,1.3,2.1c0.5,0.7,1.2,1.3,1.6,1.9c1.1,1.8,1.9,4,2.9,5.9c1,2,1.9,3.9,3.3,5.4
			C97.2,74.1,97.4,73.5,97.6,73.2z M53.9,57.2c-2.4,1.4-3.2,2.7-5.1,4.5c-2.2,2.1-3.2,3.6-4.7,6.4c-0.6,1.3-1.7,3-1.3,4.4
			c0.4,1.8,3.3,2.1,5.1,1.3c1.6-0.7,2.6-2.8,4-4.2c0.6-0.6,1.5-1.1,2.3-1.8c0.7-0.6,1.5-1.2,2.3-1.8c1.7-1.1,3.4-2.5,4.9-3.3
			c1.6-0.8,4-1.7,4.2-3.7c0.3-3.1-3.6-4.3-6-4C57.5,55.5,55.5,56.3,53.9,57.2z M190.3,57.6c-0.1,1.3,1,1.7,1.7,2.9
			c0.4,0.7,0.8,1.7,1.2,2.6c0.4,0.9,1.2,1.6,1.4,2.3c0.2,0.4,0.3,1.2,0.4,1.7c0.4,1,1.2,2.3,1.8,3.5c1.3,2.6,2.4,4.3,3.5,7.1
			c0.4,1,1.5,3.2,2,3.4c2.3,0.9,4.8-1.8,5.4-3c1.3-2.4,0.8-5.9,0.1-8.4c-0.3-1.1-0.6-2.2-1-3.2c-1.7-4.1-4.7-8.3-8.7-9.8
			c-1.6-0.6-4-1.1-6-0.8C191.4,56.1,190.4,56.4,190.3,57.6z M169.2,58.9c-2,1.3-4.1,3.2-4.9,5.2c-0.3,0.8-0.5,2.1-0.6,3.4
			c-0.1,1.3-0.3,2.7-0.2,3.9c0.2,4.2,2.6,5.1,5.4,6.9c1.8,1.1,3.6,2.2,5.5,2.8c2.1,0.6,4.8,0.8,8.1,1.3c2.2,0.3,7.2,1.3,7.9-0.3
			c0.4-1-0.5-2.2-0.9-3.3c-0.6-1.5-1-3.3-1.7-4.8c-0.5-1-1.3-2-1.7-2.8c-1-2.2-1.7-4.6-2.6-6.4c-0.5-1-1-2.1-1.4-3.1
			c-0.5-1.1-0.8-2.3-1.3-3.2c-0.8-1.3-2.7-2.3-4.4-2.1C173.5,56.6,171.1,57.6,169.2,58.9z M197.2,77.8c-0.6-1.3-1.6-2.5-2.1-3.7
			c-0.5-1-0.6-2-1-3c-0.7-1.6-1.6-3.3-2.4-4.9c-1.2-2.3-2.4-4.4-3.4-6.3c-0.6-1-1-2.9-2-2.8c-1.8,0.2-0.3,2.9,0.2,4
			c3.1,6.8,6.1,13.8,9,20.1c0.8,0.4,2.5,1.9,3.3,0.6C198.7,80.4,197.9,79.1,197.2,77.8z M178.7,89.3c0.8,0.6,1.8,1.1,2.8,1.8
			c1.5,1,6.7,4.2,3.4,6.1c-0.4,0.3-1.1,0.2-1.8,0.4c-0.5,0.2-0.8,0.6-1.1,0.7c-0.5,0.2-1.2,0.2-1.9,0.3c-0.5,0.1-1.1,0.5-1.7,0.7
			c-1.9,0.4-3.9,0.8-5.7,1.3c-1.2,0.3-2.2,0.6-3.4,0.9c-0.5,0.1-1.1,0.3-1.6,0.4c-1.3,0.3-2.4,0.9-3.1,1c-1.5,0.2-3.9-0.3-5.1-0.7
			c-2.2-0.7-4-3.7-4.3-6.1c-0.3-2.1,0.1-5.6,1.8-5.4c1.2,0.1,1,1.1,1.3,2.2c0.3,0.9,0.7,1.9,1.6,2.1c0.6,0.2,1.2-0.1,2-0.2
			c1.7-0.2,3.4,0.2,5.2,0.3c1.8,0.1,4.1-0.1,5.9-0.2c2.3-0.1,4.4-0.1,4.4-1.8c0-1.7-2.7-3.2-3.9-4c-0.7-0.5-1.7-0.9-2.6-1.3
			c-0.9-0.5-1.7-1.2-2.4-1.6c-2.2-1.1-4.7-1.5-6.7-2.1c-0.9-0.3-1.9-0.9-2.9-1.4c-1.8-1-5.2-1.9-5-4.4c0.1-1.7,2.5-2.4,3.3-3.7
			c0.2-0.4,0.6-1.3,0.7-2c0-0.5-0.3-1.2-0.3-1.9c0-1.1,0.1-2.5,0.2-3.5c0.1-0.9,0.7-1.6,0.6-2.4c-0.4-2.9-4.7-3.1-8.1-3
			c-1,0-2.6,0.5-3.8,0.7c-1.1,0.1-1.8-0.1-2.6,0.1c-1.4,0.4-2.8,1.6-2.9,2.7c-0.1,1.3,1.4,2.8,2.2,3.8c0.9,1,2.1,2,2.8,3.2
			c1.1,1.9,1.5,4.8,1.2,7.8c-0.3,4-1.5,6.3-2.8,9.1c-0.6,1.4-1.1,3-1.8,4.1c-1.1,1.8-2.5,3.1-3.9,4.7c-0.9,1-1.9,1.9-2.9,2.8
			c-3.5,2.8-7.2,5-12,6.5c-1.8,0.6-3.8,1.3-5.5,1.7c-2.4,0.4-4.4,0.5-6.3,1.2c0.2,1.4,0.8,2.6,1.4,3.9c0.6,1.2,1.1,2.6,1.8,3.8
			c0.4,0.8,1.3,1.6,1.6,2.3c1.7,5,4.3,9.9,6.4,14.5c0.3,0.8,0.8,1.5,1.1,2.3c0.3,0.9,0.4,1.9,0.8,2.8c0.3,0.7,0.8,1.4,1.1,2.1
			c0.4,0.8,0.4,1.7,0.8,2.6c0.2,0.5,0.7,1.1,1,1.7c0.3,0.6,0.6,1.2,0.9,1.8c3.3,7.4,6.4,15.2,9.9,22.4c0.6,1.3,0.9,2.7,1.4,4
			c0.4,1,1.1,2.3,1.8,3.5c0.6,1.1,1.6,2.7,1.3,4.1c-0.1,0.7-1.7,1.8-2.4,2.7c-2.5,2.7-5.6,5-8.1,7.3c-10,9.1-19.5,18.1-29.4,27.1
			c-0.9,0.8-2.2,1.8-1.6,3.2c1.1,0.5,2.4,0.3,3.5,0.2c3.8-0.2,7.9-0.4,11.5-0.6c3.9-0.2,6.7-1.2,9.2-2.8c0.9-0.6,1.9-0.9,2.7-1.4
			c1.8-1.2,3.1-3.1,4.8-4.4c1.7-1.4,3.1-3.1,4.7-4.5c1.1-0.5,1.9-3,3.4-2.8c0.4,0.1,0.8,0.4,0.9,0.9c0.2,0.9-0.6,1.4-1,1.8
			c-0.5,0.5-0.9,1.1-1.2,1.6c-0.7,0.9-2.1,2.4-2,3.5c0,0.8,1,1.6,1.7,2.1c0.5,0.3,1.8,1.3,2.9,1c0.2-0.1,0.6-0.7,1-1.3
			c1-1.5,2.4-2.8,3.4-3.8c3.3-3.2,6.3-6.5,9.5-9.8c1.6-1.6,3.4-3.3,4.8-4.9c0.7-0.9,1.3-1.8,2.1-2.7c0.7-0.8,1.4-1.7,2.2-2.6
			c1.5-1.6,5-5.7,7.3-3.2c0.4,3.1-1.1,3.6-2.7,5.1c-2.2,2.2-4.2,4-6,6.2c-0.4,0.5-0.6,1.1-1,1.4c-1.1,1.1-2.7,1.9-3.7,3
			c-0.5,0.6-0.8,1.4-1.3,2c-0.6,0.7-1.5,1.4-2.2,2.1c-0.7,0.8-1.3,1.7-2,2.3c-1,0.9-2.1,1.7-3.1,2.7c-0.5,0.5-0.9,1-1.3,1.6
			c-0.4,0.4-1.3,0.9-1.1,1.7c2.4,1,4.3-0.1,6.8-0.4c1.6-0.2,3.2-0.1,4.4-0.6c1.5-0.6,2.7-2.5,3.8-4.1c1.1-1.6,2.6-3.1,3.4-4.4
			c0.6-0.9,1-2.2,1.6-3c0.7-1.1,1.9-2.1,2.9-3.2c4.9-5.6,9.6-11.1,14.4-16.5c2-2.2,4.2-4.3,5.7-6.8c-2-0.1-3.8,0.6-5.7,0.9
			c-1,0.1-2,0.1-3,0.3c-0.9,0.2-1.7,0.5-2.7,0.8c-1.8,0.5-3.7,0.8-5.7,1.1c-3.5,0.6-6.4,1.3-9.9,1.9c-1.4,0.2-2.7,0.8-4,0.9
			c-2.5,0.3-3.9,0.3-6.2,1c-1.2,0.4-3.5,1.1-4.3,0.2c-0.9-1-0.1-2.3,0-2.9c0-0.4-0.1-1.7-0.2-2.2c-0.3-1.7-1.6-4-2.4-6.1
			c-0.3-0.7-2.9-6.1-0.4-5.9c0.7,0.1,1.3,2,1.8,3c1.4,3.2,3,7.3,5.3,9c1.6,1.2,3,0.7,5.2,0.2c8.7-1.9,16.5-3.3,24.8-5.2
			c-0.3-2.1-1-4.6-1.6-6.3c-0.2-0.6-0.2-1.1-0.3-1.7c-0.3-0.9-0.8-1.5-0.9-2.3c-0.1-0.8,0-2.5,1.2-2.4c0.8,0,1.5,1.7,1.8,2.4
			c1.3,3.4,2,6.6,3.2,9.5c1.8-0.3,3.5-0.7,5.2-1c-0.4-1.1-0.4-2.6-1-3.4c-0.6-3.7-2.4-7.6-3.2-11.8c-0.2-1.3-0.6-3.5,1-3.4
			c0.9,0,1,1.1,1.6,1.7c0,2.1,0.7,3.2,1.2,4.8c1.2,3.6,1.9,7.3,3.7,10.2c0.2,0.6,0.5,1.5,1.4,1c0-2.9-1.8-5.8-2.4-8.2
			c-0.5-1.6-0.9-4.2,0.9-4c1.3,0.1,1.3,2.4,1.7,3.9c0.2,0.9,1,2.5,1.6,4c0.5,1.5,0.9,3.2,2.1,3.4c1.5,0.3,3.7-1.2,5.2-1
			c-0.3-1.3-0.6-2.6-1.2-4.2c-0.5-1.4-2.1-4.8,0-4.9c1.6-0.1,2.1,2.5,2.6,4c0.6,1.8,1,3.5,2.2,4.3c4.3-0.7,8.2-2.3,12.4-2.7
			c0.6-1.2,2.2-2,2.2-3.4c0-0.5-0.7-1.8-1.1-2.8c-5.2-12.3-9.9-24.3-14.8-36.5c-0.7-1.9-1.7-3.7-2.3-5.7c-0.4-1.2-0.7-2.4-1.2-3.5
			c-0.5-1.1-1.1-2.1-1.6-3.2c-3.3-7.6-6.3-15.6-9.3-23.2c-4.2,0-8.9-0.1-13.3-0.2c-1.8,0-3.5-0.6-5.1-0.6
			C176.8,88.2,177.9,88.7,178.7,89.3z M82.2,67c0,1.1,1.4,3.4,1.8,4.7c0,0,0,0.1,0,0.1c0.5,1,1.7,2.8,2.4,3.9
			c0.8,1.1,1.7,3.3,2.7,3.7c2.3,0.8,4.6-0.9,4.3-3.3c-0.1-0.7-0.9-1.3-1.3-2.3c-0.2-0.4-0.2-0.9-0.4-1.3c-0.3-0.6-1.4-1.8-2.2-3
			c-0.4-0.6-0.6-1.3-0.9-1.8c-0.3-0.5-0.9-0.9-1.4-1.4c-1-1.1-1.3-1.9-2.9-1.6C83.3,64.7,82.2,65.6,82.2,67z M97,100.1
			c1.2,0.9,2.3,2,3.4,2.6c4.3,1.9,12.1,1.7,17,0.8c1.4-0.2,2.8-0.2,3.9-0.6c1.5-0.4,3.2-1.4,4.7-2.1c2.2-1.1,4.2-2.1,5.7-3.4
			c0.4-0.4,0.9-0.7,1.3-1.1c3-2.9,5.2-6.7,6.9-10.9c0.6-1.5,1.5-2.9,1.8-4.2c0.6-2.9-0.2-5.2-1.4-6.8c-1.2-1.5-2.8-2.3-4.7-3.4
			c-1.9-1.1-4.2-2.3-6.9-2.4c-3.1-0.2-8.1-0.3-11.2,0.2c-3.2,0.5-6.4,2.4-9.4,4c-1.4,0.7-2.7,1.5-3.9,2.8c-1.1,1.2-2.7,2.5-3.1,3.7
			c-0.2,0.4-0.1,1-0.2,1.6c-0.3,1.9-0.1,2.9,0.4,4.9c0.3,1,0.5,2.2,0.8,3.2c0.4,1.3,1.2,2.6,1.7,3.8c0.2,0.5,0.3,1,0.4,1.4
			c0.5,1.2,2.5,2.8,2,4.4c-0.5,1.6-3.4,0.3-4.7,0.1c-0.9-0.7-0.8-1.8-1.3-2.8c-0.1-0.3-0.5-0.5-0.7-0.8c-1-1.6-1.7-3.3-2-5.2
			c0.6-1.3,1.5-2.4,0.9-4.3c-0.9-1.4-2.7-0.7-3.7,0.1c-2,1.8-2.9,6.3-2.3,9.9c0.4,0.1,0.2,0.7,0.4,1C93.8,98,95.4,98.9,97,100.1z
			 M199.6,87.8c-0.4,0.7,0.2,1.5,0.4,2.1c4.7,10.6,9.9,21,14.4,31.7c3.6,8.5,7.3,17.3,11,26c0.5,1.2,1.2,2.9,1.9,4.2
			c0.7,1.2,1.8,2.7,3.8,2c0.2-1.1-0.5-2.1-0.9-3.1c-0.4-1-0.8-2-1.3-2.9c-1-1.9-2.2-3.8-2.9-5.7c-0.5-1.4-0.9-2.7-1.4-4.1
			c-0.5-1.3-1.2-2.6-1.8-3.9c-1.1-2.7-2-5.4-3.2-8c-0.9-1.9-2-3.9-2.9-5.9c-1.9-4-3.8-8-5.5-12c-0.9-2-2.1-4-2.8-6
			c-0.4-1.4-0.8-2.6-1.3-3.9c-1.6-3.7-3.2-7.4-5.1-10.9C201.1,87.7,200,87.5,199.6,87.8z M108.2,115.7c0.6,1.3,1.1,2.5,1.7,3.8
			c0.4,0.9,1.1,1.7,1.4,2.6c0.3,0.7,0.4,1.4,0.7,2.1c1.2,3,3.5,5.2,4.3,8.2c0.2,0.7,0.2,1.5,0.4,2.2c0.2,0.8,0.7,1.8,1.1,2.7
			c0.4,0.9,0.8,1.9,1.2,2.7c0.6,1,1.6,1.8,2,3c0.3,0.8,0.3,1.8,0.6,2.7c0.6,1.9,1.8,3.6,2.6,5.4c0.4,0.9,0.8,1.8,1.2,2.8
			c0.4,0.9,1.1,1.8,1.4,2.7c0.2,0.4,0.3,1.4,0.6,2c0.7,2,2.1,4.4,2.9,6.2c2.3,5.2,4.7,10.6,7.1,15.9c0.5,1.1,1,2.8,1.8,2.9
			c1.9,0.1,1.6-3,1.1-4.3c-0.7-2.1-2.2-3.7-3-6c-0.2-0.5-0.1-1.1-0.3-1.8c-0.5-1.6-1.5-3.3-2.2-5c-3.9-8.5-7.4-16.8-11.1-25.3
			c-1-2.4-2.2-5.1-3.4-7.4c-0.5-0.8-1.1-1.6-1.3-2.3c-0.1-0.3-0.1-1.1-0.2-1.6c-0.2-0.7-0.8-1.5-1.1-2.3c-1.9-4.2-3.5-7.9-5.3-12.2
			c-0.6-1.4-1.5-4.3-2.4-4.7c-1.5-0.6-2.2,0.3-2.7,1C106.8,113.1,107.6,114.4,108.2,115.7z M60.3,164.5c-0.4,1.1-0.4,2.5-0.8,3.9
			c-0.4,1.3-0.8,2.8-0.7,4c0.2,1.8,1.4,4,2.3,5.2c0.8,1.1,1.9,1.8,3,2.8c1.8,1.6,2.7,1.8,5,2.7c0.8,0.3,1.7,0.7,2.7,0.9
			c0.6,0.1,1.3,0,2.1,0.1c1.8,0.2,3.3,0.7,4-0.3c0.7-0.9-0.1-3.6-0.6-4.8c-0.3-0.7-0.9-1.4-1.3-2.3c-0.7-1.5-0.9-3.3-1.4-4.8
			c-0.2-0.6-0.9-1.5-1.2-2.2c-0.7-1.7-1.3-3.5-1.8-5.7c-0.4-1.7-0.9-4.5-2.2-5.2c-0.7-0.4-2-0.4-2.7-0.2
			C63.8,159.1,61.3,161.9,60.3,164.5z M211.1,173.8c-0.7,0.6-1.2,1.9-1.9,2.8c-0.5,0.6-1.3,1-1.9,1.7c-0.8,0.9-1.3,2.1-2.1,2.9
			c-0.5,0.5-1.3,0.8-1.8,1.3c-0.5,0.5-0.9,1.2-1.4,1.8c-2.1,2.2-4.1,4.2-6.1,6.5c-1,1.1-1.9,2.4-3,3.4c-0.8,0.7-1.7,1.3-2.4,2
			c-0.7,0.7-1.4,1.5-2.1,2.3c-2.7,3.3-5.3,6.3-8.5,9.4c-1.5,1.5-4.2,3.5-3.9,5.1c0.2,0.9,1.8,1.4,3.2,1.2c0.7-0.1,1.9-1.2,2.7-1.9
			c5.7-5.2,11-10.7,16.1-16.1c3.2-3.4,5.8-6.8,8.9-9.5c1.6-1.5,3.3-3,4.5-4.7c1.3-1.7,2.4-3.8,3.9-5.3c0.4-0.5,1.3-0.9,1.9-1.7
			c0.5-0.6,1.4-1.7,1.2-2.4c-0.2-1-1.9-1-3.2-0.8C214.2,172.1,211.6,173.4,211.1,173.8z M202.1,174.5c-3.9,0.4-5.1,2.8-7.1,5.2
			c-3.4,4.1-6.2,7.7-9.8,11.9c-3.3,3.8-6.5,7.7-9.8,11.8c-1,1.3-3,3-2.8,4.4c0.1,0.9,1,1.6,2.2,1.6c0.9-0.1,2.4-1.5,3.3-2.4
			c2.1-2.3,3.7-4.1,5.5-6.2c0.9-1.1,2-2,2.9-3c2.7-3.1,5.7-6.2,8.3-9.2c0.9-1.1,1.7-2.3,2.6-3.3c0.8-0.8,1.8-1.5,2.6-2.3
			c1.6-1.7,3-3.6,4.5-5.3c0.7-0.8,1.8-1.7,1.9-2.9C205.3,174.5,203.5,174.3,202.1,174.5z M66.8,224.7c2.7,1.2,5.2,2.7,8.9,2.7
			c0.5,0,1.1-0.2,1.8-0.3c3.5-0.5,5.7-1.6,7.8-3.2c0.4-0.3,0.9-0.7,1.2-1c1.2-1.2,1.5-2.7,2.6-4.3c0.6-1,1.3-2.3,1.6-3.2
			c1.1-3.6-0.2-7.8-2-9.9c-0.9-1-2.2-1.6-3.4-2.3c-0.2,0-0.1,0.3-0.4,0.2c-0.4,1.1-0.8,2.1-1.2,3.2c-1.5,1.2-2.4,3-5,3.1
			c-1.3,1.1-3.7,1-5.9,1.2c0.8,2.5,3.1,3.8,5.2,4.8c1.4,0.6,3,0.9,4.1,2c-2.5,2.1-6.5,2.7-10.6,2c-0.5-0.1-1.1-0.5-1.7-0.6
			c-0.4-0.1-0.8,0.1-1.1,0c-0.9-0.2-1.7-0.8-2.6-1.1c-0.4-0.2-0.9-0.1-1.2-0.2c-1.3-0.5-2.4-1.6-3.7-1.4
			C61.7,219.9,64.7,222.2,66.8,224.7z"/>
		<path class="st8" d="M166.9,70.8c-0.5-4.8,2.5-5.6,7-6c2.7-0.2,4.3,0.4,5.8,1.4c1.6,1.2,1.7,2,0.8,4.1c-0.6,1.3-1,1.5-2.1,2.1
			c-2,1-5.2,1.7-8.1,0.9C168.7,72.8,167.7,72.1,166.9,70.8z"/>
		<path class="st8" d="M110.3,85.6c-0.1-1.9,0-2.4,1.1-3.7c1.3-1.5,3.3-2.9,6-3.2c1.1-0.1,2.6,0,3.7,0.2c0.3,0.1,0.4,0.3,0.8,0.4
			c0.4,0.1,0.8,0.1,1,0.2c1.2,0.6,2.3,2.3,1.9,4.5c-0.1,0.5-0.9,1.9-1.2,2.3c-0.7,0.9-2.4,2.1-3.8,2.4c-0.9,0.2-2.5,0.2-3.7,0.1
			C113.2,88.8,111.4,87.6,110.3,85.6z"/>
		<path class="st8" d="M294.9,89c3.8-1.1,8.1-1.6,12.1-1.2c0.4,0,1.2,0.2,1.8,0.3c1.2,0.4,3,1.1,4.2,1.9c1.3,0.8,2.8,1.8,3.4,2.7
			c0.3,0.4,0.4,1,0.8,1.6c0.6,0.9,1.2,1.8,1.8,2.9c0.7,1.2,0.9,2.2,1.3,3.8c0.2,0.7,0.5,1.6,0.6,2.1c0.1,1.9-1.7,4.3-3,4.5
			c-1.7,0.3-3.4-0.8-4.8-0.4c-1.6-0.6-3.2-1-4.8-1.6c-1.5-0.5-3-1.3-4.5-1.7c-2.5-0.6-5.8-0.4-8.8-0.1c-1,0.1-2.3,0.3-3.2,0.6
			c-0.3,0.1-0.5,0.3-0.8,0.4c-0.7,0.3-1.6,0.4-2.3,0.7c-1.2,0.4-2,0.7-3.1,1c-0.6,0.2-1.9,0.5-3,0.3c-0.4-0.2-0.7-0.6-1.2-0.8
			c-0.5-1.4-1.5-2.5-2.2-3.9c-0.3-0.6-0.7-1.3-1.1-2c-0.4-0.6-0.9-1.4-1-2c-0.1-0.8,0.2-2.1,0.7-2.6c0.3-0.4,1.1-0.5,1.7-0.9
			c1.5-1,2.6-2.1,3.8-3.5c0.7-0.9,2.1-1.8,1.4-3.7c-0.4-1.1-2.3-1.2-2.9-1.9c-1.5-1.6-0.4-4.7,1.9-5c2-0.3,5.5,0.5,6.9,1.1
			c1.6,0.7,2.1,1.7,2.9,3.3c0.3,0.6,0.8,1.2,0.9,1.7C294.5,87.4,294.2,88.3,294.9,89z M286.1,84.5c0.2,2,1.7,1.6,2,3.1
			c0.2,0.9-0.3,3-0.7,3.8c-0.7,1.6-2.8,2.9-3.7,4.3c-0.3,0.5-0.7,1.3-0.7,1.8c0,1.5,2,3.7,3.2,4c2,0.5,3.8-0.5,5.4-0.8
			c1-0.2,2.1-0.6,3.2-0.8c2-0.3,4.2-0.1,6,0.1c2.8,0.3,5.8,0.6,8,1.2c2,0.5,4.1,2,6.3,1.7c2.5-0.4,1.5-2.9,0.4-4
			c-0.2-0.2-0.3-0.5-0.6-0.8c-1.3-1.6-2.1-2.3-3.9-3.2c-1.7-0.8-3.6-1.6-5.4-2.1c-2.5-0.6-6.5-0.8-9.4-0.4c-1.5,0.2-5.8,2.3-6-0.1
			c-0.1-0.8,0.9-1.5,1-2.1c0.7-3.8-2.5-5.4-5-6C286.1,84.2,286.3,84.5,286.1,84.5z"/>
		<path class="st8" d="M145.4,114.7c0,1.2,1.2,2,2,2.6c0.9,0.6,2,1.1,2.9,1.6c1.9,1,3.8,2.2,5.8,3.1c1.2,0.6,2.6,0.9,3.9,1.6
			c1.2,0.6,2.4,1.1,3.7,1.7c1.2,0.6,2.7,0.8,4.1,1.3c3.8,1.5,8.2,2.4,13,3.1c3.1,0.5,6.4,1,9.8,1c1.1,0,2.6-0.4,3.8-0.3
			c1.1,0.1,2.3,0.7,2.3,1.7c0.1,0.9-1.4,2.2-2.1,2.6c-0.7,0.4-2,0.7-2.8,0.8c-3.5,0.4-6.9-0.2-10-0.7c-3.1-0.5-6.2-1-9.1-1.8
			c-1.5-0.4-3.1-0.5-4.4-0.9c-0.9-0.3-1.8-0.8-2.8-1.2c-4.6-1.9-9.4-3.5-13.5-5.9c-1.7-1-3.5-1.9-4.9-2.9c-0.7-0.5-1.1-1.2-1.8-1.8
			c-0.6-0.6-1.4-1.1-1.9-1.7c-0.7-0.7-1-1.7-1.8-2.3c-1.6-1.4-5.6-2.8-7.2-0.6c-1.4,1.9-0.3,7.7-2.9,7.8c-2.7,0.1-1.9-3.1-1.7-5.1
			c0.2-2.1,0.2-3.5,0.8-5.1c0.8-2.3,1.4-3.1,3-4.9c0.7-0.7,1.2-1.7,1.8-2.4c1.2-1.4,3.4-3,4.4-3.4c1.2-0.5,4.8-1.4,5,0.4
			c0.1,1.3-1.6,1.9-2.6,2.4c-1,0.5-2.4,1.2-2.4,2.4c0,3.1,7.6,2.6,10.6,3.2c1,0.2,2,0.6,3.1,0.8c3,0.6,7.4,1.2,10.4,1.2
			c1.2,0,2.6-0.1,3.3-0.1c0.9,0,1.9,0.2,2.4,0.2c5.1,0,10-1.8,14.1-3.1c2-0.7,3.2-1.3,4.8-2.6c1-0.8,2.4-1.9,3.3,0.3
			c-0.4,7-7.4,8.4-13.8,9.8c-1.1,0.2-2.1,0.7-3.1,0.8c-4.7,0.5-9.8-0.1-14.3-0.7c-2.6-0.3-5.1-1.1-7.5-1.6
			C150.4,115.6,147.8,115.3,145.4,114.7z"/>
		<path class="st8" d="M208.9,139.2c-0.9-1.1-1.2-2.7-1-4.4c1.8-0.7,2,1.5,2.8,3.4c2.6,6.8,5.3,14.2,7.9,21c0.5,1.4,1.3,2.9,1.2,3.5
			c-0.1,0.5-0.6,1.2-1.2,1.2c-0.6,0-1.3-1.8-1.7-2.7c-1.3-3.4-2.3-6.4-3.4-9.4C211.7,147.4,210.3,143.6,208.9,139.2z"/>
		<path class="st8" d="M151.5,138.5c1.9-0.5,2.2,2.5,2.9,4.5c2.8,8.6,5.6,17.6,8.4,26.4c0.4,1.3,1.4,3.6,1.1,4.7
			c-0.2,0.6-0.7,1.1-1.4,1c-1-0.1-1.4-2.8-1.9-4.1c-3.2-9.8-6.5-19.5-9.5-29.3C150.7,140.5,150,138.9,151.5,138.5z"/>
		<path class="st8" d="M214.8,163.1c-1.5,0.6-1.7-1-2.4-1.4c-2.1-5.9-4.1-12.1-6.3-18.2c-0.3-0.7-0.7-1.3-0.3-2.3
			c0-0.2,0.1-0.3,0.2-0.3c2.2,0.1,2.8,3.6,3.5,5.7c1.8,4.8,3.3,9,5.1,13.8C214.8,161,215.5,162.2,214.8,163.1z"/>
		<path class="st8" d="M157.6,172.9c-1.3,0.1-1.5-1.6-1.9-2.4c-1.2-3-2.4-6.2-3.7-9.3c-0.9-2.1-1.5-4.3-2.2-6.4
			c-1.1-3-2.2-5.4-3.4-8.1c-0.5-1.1-1.3-3.4,0.7-3.4c1.2,0,1.7,1.8,2.1,3.1c0.8,2.2,1.8,4.5,2.6,6.8c0.3,1,0.3,1.8,1,2.4
			c1.3,4.3,2.8,8.7,4.3,13.1C157.5,169.9,158.6,171.6,157.6,172.9z"/>
		<path class="st8" d="M163.6,145.3c0.8,2.7,2.3,6.3,3.4,9.4c0.6,1.8,1.7,3.8-0.3,4.4c-1.5-0.9-2.1-3.5-2.9-5.8
			c-0.8-2.3-1.5-4.6-2.2-6.4c-0.1-0.4-0.7-1.2-0.6-1.7C161.5,144.1,163.1,144.9,163.6,145.3z"/>
		<path class="st8" d="M148.3,181.2c-1,0.3-1.8-0.3-2.3-0.9c-1.8-2-2.9-5.4-4.1-8.2c-2.1-5-4.3-10.2-6.7-15.3c-0.5-1-1.3-2-1.1-3.2
			c2.8-2.2,4,3.3,5.1,5.3c0.3,0.5,0.8,1,1,1.3c0.3,0.6,0.3,1.3,0.7,2c0.5,1.1,1.3,2.2,1.9,3.4c1.4,2.8,2.5,6.4,3.8,9.5
			c0.4,1,1,1.9,1.4,2.8C148.4,179,149,180.3,148.3,181.2z"/>
		<path class="st8" d="M169,174.7c-0.5,0.6-1.2,0.8-2.2,0.9c-1.7-5.3-3.7-11.7-5.5-17.6c-0.3-0.9-0.9-1.7-0.9-2.3
			c0-0.2,0.2-1.3,0.3-1.3c0.2-0.1,0.6,0,0.8,0c0.7,0.1,2,4,2.2,4.8c1.6,4.4,2.8,8.7,4.5,13C168.6,172.8,169.2,173.7,169,174.7z"/>
		<path class="st8" d="M155.1,174.5c-1.6,1.6-3.1-1.8-3.7-3.1c-0.8-1.8-1.5-4.2-2.4-6.5c-0.6-1.6-1.4-3.1-2-4.8
			c-0.4-1-0.7-1.6-0.6-2.6c1.9-1.2,2.8,2.4,3.3,3.8C151.6,165.6,153.6,170.4,155.1,174.5z"/>
		<path class="st9" d="M113.4,217.1c1.6,0.5,3.9,0,6.2-0.1c1.6-0.1,5.6-0.7,5.8,0.6c0.3,1.6-2.2,1.5-3.7,1.6
			c-3.2,0.2-6.1,0.4-9.5,0.7c-1.5,0.1-3.7,0.5-3.9-0.8c-0.1-0.5,1.3-1.8,2-2.4c5.3-4.8,10.9-9.9,16.1-14.5c3.2-2.9,6.1-5.8,9.1-8.4
			c3.1-2.7,6.1-5.9,9.2-8.3c0.5-0.4,1.3-0.2,1.4,0.7c0.2,1.2-2.9,3.7-3.7,4.3C132.3,199.4,123.4,207.7,113.4,217.1z"/>
	</g>
	<g id="Layer_2" class="st0">
		<g class="st1">
			<g>
				<path class="st6" d="M87.1,213.3c7.7,0,7.7-12,0-12C79.4,201.3,79.4,213.3,87.1,213.3L87.1,213.3z"/>
			</g>
		</g>
		<g class="st1">
			<g>
				<path class="st6" d="M78.6,220c7.7,0,7.7-12,0-12C70.9,208,70.9,220,78.6,220L78.6,220z"/>
			</g>
		</g>
		<g class="st1">
			<g>
				<path class="st6" d="M85.7,222.8c7.7,0,7.7-12,0-12C78,210.8,78,222.8,85.7,222.8L85.7,222.8z"/>
			</g>
		</g>
		<g class="st1">
			<g>
				<path class="st6" d="M77,230.1c7.7,0,7.7-12,0-12C69.2,218.1,69.2,230.1,77,230.1L77,230.1z"/>
			</g>
		</g>
		<g class="st1">
			<g>
				<path class="st6" d="M81.8,228.9c7.7,0,7.7-12,0-12C74.1,216.9,74.1,228.9,81.8,228.9L81.8,228.9z"/>
			</g>
		</g>
		<g class="st1">
			<g>
				<path class="st6" d="M65.7,227c7.7,0,7.7-12,0-12C58,215,58,227,65.7,227L65.7,227z"/>
			</g>
		</g>
		<g class="st1">
			<g>
				<path class="st6" d="M70.8,230c7.7,0,7.7-12,0-12C63.1,218,63.1,230,70.8,230L70.8,230z"/>
			</g>
		</g>
		<g class="st1">
			<g>
				<path class="st6" d="M89.6,218.9c7.7,0,7.7-12,0-12C81.9,206.9,81.9,218.9,89.6,218.9L89.6,218.9z"/>
			</g>
		</g>
	</g>
</g>
</svg>
